<svg width="21" height="21" viewBox="0 0 21 21" fill="none" xmlns="http://www.w3.org/2000/svg">
<path fill-rule="evenodd" clip-rule="evenodd" d="M16.4167 0.833374C16.969 0.833374 17.4167 1.28109 17.4167 1.83337V3.58337H19.1667C19.719 3.58337 20.1667 4.03109 20.1667 4.58337C20.1667 5.13566 19.719 5.58337 19.1667 5.58337H17.4167V7.33337C17.4167 7.88566 16.969 8.33337 16.4167 8.33337C15.8644 8.33337 15.4167 7.88566 15.4167 7.33337V5.58337H13.6667C13.1144 5.58337 12.6667 5.13566 12.6667 4.58337C12.6667 4.03109 13.1144 3.58337 13.6667 3.58337H15.4167V1.83337C15.4167 1.28109 15.8644 0.833374 16.4167 0.833374ZM6.10923 1.75004L10.4583 1.75004C11.0106 1.75004 11.4583 2.19776 11.4583 2.75004C11.4583 3.30233 11.0106 3.75004 10.4583 3.75004H6.15C5.36343 3.75004 4.83364 3.75082 4.42524 3.78419C4.02851 3.8166 3.83518 3.87471 3.70552 3.94078C3.37623 4.10856 3.10852 4.37627 2.94074 4.70556C2.87467 4.83522 2.81656 5.02855 2.78415 5.42528C2.75078 5.83368 2.75 6.36347 2.75 7.15004V14.85C2.75 15.6366 2.75078 16.1664 2.78415 16.5748C2.81656 16.9715 2.87467 17.1649 2.94074 17.2945C3.08587 17.5794 3.30579 17.8181 3.57565 17.986C3.64501 17.8879 3.71325 17.8128 3.75942 17.7629C3.90103 17.6096 4.0927 17.4355 4.28705 17.2588L12.0886 10.1665C12.2352 10.0332 12.3832 9.89858 12.5194 9.79248C12.6718 9.67372 12.8646 9.54531 13.1126 9.46475C13.4582 9.35249 13.8286 9.3408 14.1807 9.43105C14.4333 9.49582 14.6338 9.61182 14.7933 9.72074C14.9359 9.81806 15.0922 9.9431 15.2468 10.0669L17.8325 12.1354C17.8532 12.1519 17.8737 12.1683 17.8941 12.1846C18.1797 12.4126 18.4407 12.621 18.6454 12.8818C18.9 13.2062 19.0808 13.5822 19.175 13.9836C19.2508 14.3064 19.2504 14.6405 19.2501 15.0059C19.25 15.032 19.25 15.0583 19.25 15.0847V15.1195C19.25 15.2705 19.25 15.4154 19.2496 15.5545C19.2499 15.5641 19.25 15.5737 19.25 15.5834C19.25 15.6281 19.25 15.6721 19.2501 15.7156C19.2505 16.4382 19.2509 16.9905 19.1222 17.4706C18.9705 18.0368 18.6917 18.5487 18.3177 18.9746C18.1799 19.1314 18.0293 19.2765 17.8673 19.4084C17.4637 19.7369 16.99 19.9831 16.4706 20.1223C15.9905 20.2509 15.4381 20.2505 14.7155 20.2501C14.6721 20.2501 14.628 20.25 14.5833 20.25H14.1774C14.1582 20.25 14.1389 20.25 14.1195 20.25H6.1092C6.08617 20.25 6.06326 20.25 6.04047 20.25L5.4435 20.25C5.21138 20.2501 4.9821 20.2501 4.78845 20.2376C4.60083 20.2316 4.4256 20.2226 4.26237 20.2093C3.74196 20.1667 3.25613 20.075 2.79754 19.8413C2.09193 19.4818 1.51825 18.9081 1.15873 18.2025C0.92506 17.7439 0.833308 17.2581 0.790789 16.7377C0.749975 16.2381 0.749987 15.6262 0.750001 14.8908V7.10927C0.749987 6.37388 0.749975 5.76195 0.790789 5.26241C0.833308 4.742 0.92506 4.25617 1.15873 3.79758C1.51825 3.09197 2.09193 2.51829 2.79754 2.15877C3.25613 1.9251 3.74197 1.83335 4.26237 1.79083C4.76191 1.75001 5.37384 1.75003 6.10923 1.75004ZM16.8606 17.6006C16.9612 17.4763 17.045 17.3378 17.109 17.1883C17.1575 17.0749 17.2007 16.9056 17.2248 16.5635C17.2494 16.2121 17.25 15.7584 17.25 15.0847C17.25 14.5934 17.2438 14.5082 17.2279 14.4407C17.2002 14.3227 17.1471 14.2121 17.0722 14.1167C17.0294 14.0621 16.9668 14.0041 16.5831 13.6972L14.019 11.6458C13.8678 11.5249 13.7761 11.4521 13.7083 11.4027C13.6438 11.4563 13.5568 11.5347 13.4135 11.6649L6.16994 18.25H14.0846C14.7584 18.25 15.2121 18.2495 15.5635 18.2248C15.9056 18.2008 16.0749 18.1575 16.1883 18.109C16.3245 18.0507 16.4516 17.9759 16.5672 17.887C16.6759 17.8033 16.7744 17.7072 16.8606 17.6006ZM6.79167 6.95837C6.33143 6.95837 5.95833 7.33147 5.95833 7.79171C5.95833 8.25194 6.33143 8.62504 6.79167 8.62504C7.2519 8.62504 7.625 8.25194 7.625 7.79171C7.625 7.33147 7.2519 6.95837 6.79167 6.95837ZM3.95833 7.79171C3.95833 6.2269 5.22686 4.95837 6.79167 4.95837C8.35647 4.95837 9.625 6.2269 9.625 7.79171C9.625 9.35651 8.35647 10.625 6.79167 10.625C5.22686 10.625 3.95833 9.35651 3.95833 7.79171Z" fill="#747995"/>
</svg>
