<svg width="22" height="22" viewBox="0 0 22 22" fill="none" xmlns="http://www.w3.org/2000/svg">
<path fill-rule="evenodd" clip-rule="evenodd" d="M14 3C14 1.34315 15.3431 0 17 0C18.6569 0 20 1.34315 20 3V12.9998C21.213 13.9109 22 15.3631 22 17C22 19.7614 19.7614 22 17 22C14.2386 22 12 19.7614 12 17C12 15.3631 12.787 13.9109 14 12.9998V3ZM17 2C16.4477 2 16 2.44772 16 3V13.5351C16 13.8921 15.8097 14.222 15.5007 14.4007C14.6014 14.921 14 15.8908 14 17C14 18.6569 15.3431 20 17 20C18.6569 20 20 18.6569 20 17C20 15.8908 19.3986 14.921 18.4993 14.4007C18.1903 14.222 18 13.8921 18 13.5351V3C18 2.44772 17.5523 2 17 2ZM8 2C8.55228 2 9 2.44772 9 3V5.58579L10.2929 4.29289C10.6834 3.90237 11.3166 3.90237 11.7071 4.29289C12.0976 4.68342 12.0976 5.31658 11.7071 5.70711L9 8.41421V10H11C11.5523 10 12 10.4477 12 11C12 11.5523 11.5523 12 11 12H9V13.5858L10.2071 14.7929C10.5976 15.1834 10.5976 15.8166 10.2071 16.2071C9.87992 16.5343 9.38243 16.5874 9 16.3663V19C9 19.5523 8.55228 20 8 20C7.44772 20 7 19.5523 7 19V16.4142L5.70711 17.7071C5.31658 18.0976 4.68342 18.0976 4.29289 17.7071C3.90237 17.3166 3.90237 16.6834 4.29289 16.2929L7 13.5858V12H5.41421L2.70711 14.7071C2.31658 15.0976 1.68342 15.0976 1.29289 14.7071C0.902369 14.3166 0.902369 13.6834 1.29289 13.2929L2.58579 12H1C0.447715 12 0 11.5523 0 11C0 10.4477 0.447715 10 1 10H2.58579L1.29289 8.70711C0.902369 8.31658 0.902369 7.68342 1.29289 7.29289C1.68342 6.90237 2.31658 6.90237 2.70711 7.29289L5.41421 10H7V8.41421L4.29289 5.70711C3.90237 5.31658 3.90237 4.68342 4.29289 4.29289C4.68342 3.90237 5.31658 3.90237 5.70711 4.29289L7 5.58579V3C7 2.44772 7.44772 2 8 2Z" fill="#747995"/>
</svg>
