<svg width="16" height="22" viewBox="0 0 16 22" fill="none" xmlns="http://www.w3.org/2000/svg">
<path fill-rule="evenodd" clip-rule="evenodd" d="M9.00002 0C8.51118 0 8.09399 0.353413 8.01362 0.835601L7.15289 6H2.01718C2.00659 5.99984 1.99597 5.99984 1.98532 6H1C0.447715 6 0 6.44772 0 7C0 7.55229 0.447715 8 1 8H1.1324L2.75984 19.42C2.86186 20.1405 3.22242 20.8001 3.7742 21.2747C4.32478 21.7482 5.02837 22.0058 5.7544 22H10.2856C11.0116 22.0058 11.7152 21.7482 12.2658 21.2747C12.8178 20.8 13.1783 20.1408 13.2802 19.42L13.2804 19.4179L14.8704 8H15C15.5523 8 16 7.55229 16 7C16 6.44772 15.5523 6 15 6H14.0144C14.0039 5.99984 13.9935 5.99984 13.9831 6H9.18048L9.84714 2H11C11.5523 2 12 1.55228 12 1C12 0.447715 11.5523 0 11 0H9.00002ZM7.98385 8C7.99546 8.00021 8.00704 8.00021 8.01858 8H12.8511L12.119 13.2574C11.5956 13.4196 11.0499 13.5025 10.5 13.5025C9.77427 13.5025 9.05579 13.3581 8.38641 13.0777C7.4723 12.6947 6.49111 12.4975 5.50002 12.4975C4.93348 12.4975 4.37017 12.5619 3.82079 12.6887L3.15261 8H7.98385ZM4.10436 14.6785L4.74016 19.1401C4.77412 19.3803 4.89429 19.6001 5.07828 19.7583C5.26226 19.9165 5.4975 20.0024 5.74016 20.0001L5.75 20L10.2998 20C10.5425 20.0024 10.7777 19.9165 10.9617 19.7583C11.1455 19.6003 11.2656 19.3809 11.2997 19.1409L11.8228 15.3845C11.3873 15.4628 10.9447 15.5025 10.5 15.5025C9.50892 15.5025 8.52773 15.3053 7.61362 14.9223C6.94424 14.6419 6.22576 14.4975 5.50002 14.4975C5.02788 14.4975 4.55882 14.5586 4.10436 14.6785Z" fill="#747995"/>
</svg>
