<svg width="20" height="22" viewBox="0 0 20 22" fill="none" xmlns="http://www.w3.org/2000/svg">
<path fill-rule="evenodd" clip-rule="evenodd" d="M6 0C6.55229 0 7 0.447715 7 1V2H13V1C13 0.447715 13.4477 0 14 0C14.5523 0 15 0.447715 15 1V2.00163C15.4755 2.00489 15.891 2.01471 16.2518 2.04419C16.8139 2.09012 17.3306 2.18868 17.816 2.43597C18.5686 2.81947 19.1805 3.43139 19.564 4.18404C19.8113 4.66937 19.9099 5.18608 19.9558 5.74817C20 6.28936 20 6.95372 20 7.75868V16.2413C20 17.0463 20 17.7106 19.9558 18.2518C19.9099 18.8139 19.8113 19.3306 19.564 19.816C19.1805 20.5686 18.5686 21.1805 17.816 21.564C17.3306 21.8113 16.8139 21.9099 16.2518 21.9558C15.7106 22 15.0463 22 14.2413 22H5.75868C4.95372 22 4.28936 22 3.74817 21.9558C3.18608 21.9099 2.66937 21.8113 2.18404 21.564C1.43139 21.1805 0.819468 20.5686 0.435975 19.816C0.188684 19.3306 0.0901197 18.8139 0.0441945 18.2518C-2.28137e-05 17.7106 -1.23241e-05 17.0463 4.31292e-07 16.2413V7.7587C-1.23241e-05 6.95373 -2.28137e-05 6.28937 0.0441945 5.74817C0.0901197 5.18608 0.188684 4.66937 0.435975 4.18404C0.819468 3.43139 1.43139 2.81947 2.18404 2.43597C2.66937 2.18868 3.18608 2.09012 3.74818 2.04419C4.10898 2.01471 4.52454 2.00489 5 2.00163V1C5 0.447715 5.44772 0 6 0ZM5 4.00176C4.55447 4.00489 4.20463 4.01356 3.91104 4.03755C3.47262 4.07337 3.24842 4.1383 3.09202 4.21799C2.7157 4.40973 2.40973 4.71569 2.21799 5.09202C2.1383 5.24842 2.07337 5.47262 2.03755 5.91104C2.00078 6.36113 2 6.94342 2 7.8V8H18V7.8C18 6.94342 17.9992 6.36113 17.9624 5.91104C17.9266 5.47262 17.8617 5.24842 17.782 5.09202C17.5903 4.7157 17.2843 4.40973 16.908 4.21799C16.7516 4.1383 16.5274 4.07337 16.089 4.03755C15.7954 4.01356 15.4455 4.00489 15 4.00176V5C15 5.55228 14.5523 6 14 6C13.4477 6 13 5.55228 13 5V4H7V5C7 5.55228 6.55229 6 6 6C5.44772 6 5 5.55228 5 5V4.00176ZM18 10H2V16.2C2 17.0566 2.00078 17.6389 2.03755 18.089C2.07337 18.5274 2.1383 18.7516 2.21799 18.908C2.40973 19.2843 2.7157 19.5903 3.09202 19.782C3.24842 19.8617 3.47262 19.9266 3.91104 19.9624C4.36113 19.9992 4.94342 20 5.8 20H14.2C15.0566 20 15.6389 19.9992 16.089 19.9624C16.5274 19.9266 16.7516 19.8617 16.908 19.782C17.2843 19.5903 17.5903 19.2843 17.782 18.908C17.8617 18.7516 17.9266 18.5274 17.9624 18.089C17.9992 17.6389 18 17.0566 18 16.2V10ZM14.2071 11.7929C14.5976 12.1834 14.5976 12.8166 14.2071 13.2071L9.70711 17.7071C9.31658 18.0976 8.68342 18.0976 8.29289 17.7071L6.29289 15.7071C5.90237 15.3166 5.90237 14.6834 6.29289 14.2929C6.68342 13.9024 7.31658 13.9024 7.70711 14.2929L9 15.5858L12.7929 11.7929C13.1834 11.4024 13.8166 11.4024 14.2071 11.7929Z" fill="#747995"/>
</svg>
