<svg width="21" height="21" viewBox="0 0 21 21" fill="none" xmlns="http://www.w3.org/2000/svg">
<path fill-rule="evenodd" clip-rule="evenodd" d="M15.7096 1.12621C16.1001 0.735682 16.7332 0.735682 17.1238 1.12621L19.8738 3.87621C20.0613 4.06374 20.1667 4.3181 20.1667 4.58331C20.1667 4.84853 20.0613 5.10288 19.8738 5.29042L17.1238 8.04042C16.7332 8.43094 16.1001 8.43094 15.7096 8.04042C15.319 7.64989 15.319 7.01673 15.7096 6.62621L16.7525 5.58331H13.6667C13.1144 5.58331 12.6667 5.1356 12.6667 4.58331C12.6667 4.03103 13.1144 3.58331 13.6667 3.58331L16.7525 3.58331L15.7096 2.54042C15.319 2.1499 15.319 1.51673 15.7096 1.12621ZM6.10923 1.74998L10.4583 1.74998C11.0106 1.74998 11.4583 2.19769 11.4583 2.74998C11.4583 3.30226 11.0106 3.74998 10.4583 3.74998H6.15C5.36343 3.74998 4.83364 3.75076 4.42524 3.78413C4.02851 3.81654 3.83518 3.87465 3.70552 3.94072C3.37623 4.1085 3.10852 4.37621 2.94074 4.7055C2.87467 4.83516 2.81656 5.02849 2.78415 5.42522C2.75078 5.83362 2.75 6.36341 2.75 7.14998V14.85C2.75 15.6366 2.75078 16.1663 2.78415 16.5747C2.81656 16.9715 2.87467 17.1648 2.94074 17.2945C3.08587 17.5793 3.30579 17.8181 3.57565 17.9859C3.64501 17.8879 3.71325 17.8128 3.75942 17.7628C3.90103 17.6096 4.0927 17.4354 4.28705 17.2588L12.0886 10.1664C12.2352 10.0332 12.3832 9.89852 12.5194 9.79241C12.6718 9.67365 12.8646 9.54525 13.1126 9.46469C13.4582 9.35243 13.8286 9.34074 14.1807 9.43099C14.4333 9.49576 14.6338 9.61176 14.7933 9.72068C14.9359 9.81799 15.0922 9.94304 15.2468 10.0668L17.8325 12.1354C17.8532 12.1519 17.8737 12.1683 17.8941 12.1846C18.1797 12.4125 18.4407 12.6209 18.6454 12.8817C18.9 13.2061 19.0808 13.5821 19.175 13.9836C19.2508 14.3064 19.2504 14.6404 19.2501 15.0058C19.25 15.0319 19.25 15.0582 19.25 15.0846V15.1194C19.25 15.2704 19.25 15.4154 19.2496 15.5544C19.2499 15.564 19.25 15.5737 19.25 15.5833C19.25 15.628 19.25 15.6721 19.2501 15.7155C19.2505 16.4381 19.2509 16.9905 19.1222 17.4706C18.9705 18.0367 18.6917 18.5487 18.3177 18.9745C18.1799 19.1313 18.0293 19.2765 17.8673 19.4084C17.4637 19.7369 16.99 19.983 16.4706 20.1222C15.9905 20.2508 15.4381 20.2505 14.7155 20.25C14.6721 20.25 14.628 20.25 14.5833 20.25H14.1774C14.1582 20.25 14.1389 20.25 14.1195 20.25H6.1092C6.08617 20.25 6.06326 20.25 6.04047 20.25L5.4435 20.25C5.21138 20.25 4.9821 20.2501 4.78845 20.2375C4.60083 20.2315 4.4256 20.2225 4.26237 20.2092C3.74196 20.1667 3.25613 20.0749 2.79754 19.8413C2.09193 19.4817 1.51825 18.9081 1.15873 18.2024C0.92506 17.7438 0.833308 17.258 0.790789 16.7376C0.749975 16.2381 0.749987 15.6261 0.750001 14.8908V7.10921C0.749987 6.37382 0.749975 5.76188 0.790789 5.26235C0.833308 4.74194 0.92506 4.25611 1.15873 3.79752C1.51825 3.09191 2.09193 2.51823 2.79754 2.15871C3.25613 1.92504 3.74197 1.83329 4.26237 1.79077C4.76191 1.74995 5.37384 1.74997 6.10923 1.74998ZM16.8606 17.6005C16.9612 17.4762 17.045 17.3377 17.109 17.1883C17.1575 17.0748 17.2007 16.9056 17.2248 16.5635C17.2494 16.2121 17.25 15.7583 17.25 15.0846C17.25 14.5933 17.2438 14.5082 17.2279 14.4407C17.2002 14.3226 17.1471 14.212 17.0722 14.1166C17.0294 14.062 16.9668 14.004 16.5831 13.6971L14.019 11.6458C13.8678 11.5248 13.7761 11.452 13.7083 11.4026C13.6438 11.4562 13.5568 11.5347 13.4135 11.6649L6.16994 18.25H14.0846C14.7584 18.25 15.2121 18.2494 15.5635 18.2247C15.9056 18.2007 16.0749 18.1575 16.1883 18.1089C16.3245 18.0507 16.4516 17.9759 16.5672 17.8869C16.6759 17.8033 16.7744 17.7071 16.8606 17.6005ZM6.79167 6.95831C6.33143 6.95831 5.95833 7.33141 5.95833 7.79165C5.95833 8.25188 6.33143 8.62498 6.79167 8.62498C7.2519 8.62498 7.625 8.25188 7.625 7.79165C7.625 7.33141 7.2519 6.95831 6.79167 6.95831ZM3.95833 7.79165C3.95833 6.22684 5.22686 4.95831 6.79167 4.95831C8.35647 4.95831 9.625 6.22684 9.625 7.79165C9.625 9.35645 8.35647 10.625 6.79167 10.625C5.22686 10.625 3.95833 9.35645 3.95833 7.79165Z" fill="#747995"/>
</svg>
