<svg width="22" height="20" viewBox="0 0 22 20" fill="none" xmlns="http://www.w3.org/2000/svg">
<path fill-rule="evenodd" clip-rule="evenodd" d="M6.24973 1.77298C8.98523 0.193641 12.1801 0.130306 14.8588 1.31871C15.3637 1.54268 15.5914 2.13349 15.3674 2.63832C15.1434 3.14316 14.5526 3.37085 14.0478 3.14688C11.9282 2.20656 9.4082 2.25884 7.24973 3.50503C4.09361 5.32722 2.76292 9.09692 3.89922 12.4198L3.99159 12.0751C4.13453 11.5416 4.68287 11.225 5.21633 11.3679C5.7498 11.5109 6.06638 12.0592 5.92344 12.5927L5.19139 15.3247C5.12275 15.5809 4.95515 15.7993 4.72546 15.9319C4.49578 16.0646 4.22282 16.1005 3.96664 16.0318L1.23459 15.2998C0.701127 15.1569 0.384545 14.6085 0.527486 14.0751C0.670428 13.5416 1.21877 13.225 1.75223 13.3679L2.1572 13.4765C0.458549 9.17135 2.1211 4.15665 6.24973 1.77298ZM16.8088 4.67505C16.9517 4.14159 17.5 3.82501 18.0335 3.96795L20.7656 4.7C21.299 4.84294 21.6156 5.39128 21.4727 5.92474C21.3297 6.45821 20.7814 6.77479 20.2479 6.63185L19.8425 6.52321C21.5415 10.8285 19.879 15.8436 15.7502 18.2273C13.0147 19.8067 9.81983 19.87 7.14108 18.6816C6.63625 18.4576 6.40856 17.8668 6.63253 17.362C6.8565 16.8572 7.44731 16.6295 7.95214 16.8534C10.0717 17.7938 12.5917 17.7415 14.7502 16.4953C17.9063 14.6731 19.237 10.9035 18.1007 7.58071L18.0086 7.92474C17.8656 8.45821 17.3173 8.77479 16.7838 8.63185C16.2504 8.48891 15.9338 7.94057 16.0767 7.4071L16.8088 4.67505Z" fill="#747995"/>
</svg>
