<svg width="22" height="19" viewBox="0 0 22 19" fill="none" xmlns="http://www.w3.org/2000/svg">
<path fill-rule="evenodd" clip-rule="evenodd" d="M8.49998 2C6.56699 2 4.99998 3.567 4.99998 5.5C4.99998 7.433 6.56699 9 8.49998 9C10.433 9 12 7.433 12 5.5C12 3.567 10.433 2 8.49998 2ZM2.99998 5.5C2.99998 2.46243 5.46242 0 8.49998 0C11.5375 0 14 2.46243 14 5.5C14 8.53757 11.5375 11 8.49998 11C5.46242 11 2.99998 8.53757 2.99998 5.5ZM14.1045 1.02273C14.3503 0.528148 14.9504 0.326461 15.445 0.572245C17.2536 1.47103 18.5 3.33904 18.5 5.5C18.5 7.66096 17.2536 9.52897 15.445 10.4278C14.9504 10.6735 14.3503 10.4719 14.1045 9.97727C13.8587 9.48269 14.0604 8.88251 14.5549 8.63673C15.7098 8.0628 16.5 6.87276 16.5 5.5C16.5 4.12724 15.7098 2.9372 14.5549 2.36327C14.0604 2.11749 13.8587 1.51731 14.1045 1.02273ZM8.49998 15C5.96121 15 3.58751 16.3253 1.78631 18.6178C1.4451 19.0521 0.816447 19.1275 0.382171 18.7863C-0.0521056 18.4451 -0.127553 17.8165 0.213655 17.3822C2.30544 14.7198 5.21711 13 8.49998 13C11.7829 13 14.6945 14.7198 16.7863 17.3822C17.1275 17.8165 17.0521 18.4451 16.6178 18.7863C16.1835 19.1275 15.5549 19.0521 15.2137 18.6178C13.4125 16.3253 11.0387 15 8.49998 15ZM16.0889 14.3541C16.3166 13.851 16.9091 13.6276 17.4122 13.8553C19.0902 14.6146 20.5741 15.8393 21.7863 17.3822C22.1275 17.8165 22.0521 18.4451 21.6178 18.7863C21.1835 19.1275 20.5549 19.0521 20.2137 18.6178C19.171 17.2907 17.9327 16.2861 16.5877 15.6775C16.0845 15.4498 15.8612 14.8573 16.0889 14.3541Z" fill="#747995"/>
</svg>
