<svg width="20" height="20" viewBox="0 0 20 20" fill="none" xmlns="http://www.w3.org/2000/svg">
<path fill-rule="evenodd" clip-rule="evenodd" d="M13.4179 0.58458C13.8084 0.194056 14.4416 0.194056 14.8321 0.58458L16.4167 2.16914L18.0012 0.58458C18.3918 0.194056 19.0249 0.194056 19.4154 0.58458C19.806 0.975105 19.806 1.60827 19.4154 1.99879L17.8309 3.58335L19.4154 5.16791C19.806 5.55844 19.806 6.1916 19.4154 6.58213C19.0249 6.97265 18.3918 6.97265 18.0012 6.58213L16.4167 4.99757L14.8321 6.58213C14.4416 6.97265 13.8084 6.97265 13.4179 6.58213C13.0274 6.1916 13.0274 5.55844 13.4179 5.16791L15.0025 3.58335L13.4179 1.99879C13.0274 1.60827 13.0274 0.975105 13.4179 0.58458ZM6.10923 0.75002L10.4583 0.75002C11.0106 0.75002 11.4583 1.19774 11.4583 1.75002C11.4583 2.30231 11.0106 2.75002 10.4583 2.75002H6.15C5.36343 2.75002 4.83364 2.7508 4.42524 2.78417C4.02851 2.81658 3.83518 2.87469 3.70552 2.94076C3.37623 3.10854 3.10852 3.37625 2.94074 3.70554C2.87467 3.8352 2.81656 4.02853 2.78415 4.42526C2.75078 4.83366 2.75 5.36345 2.75 6.15002V13.85C2.75 14.6366 2.75078 15.1664 2.78415 15.5748C2.81656 15.9715 2.87467 16.1648 2.94074 16.2945C3.08587 16.5793 3.30579 16.8181 3.57565 16.986C3.64501 16.8879 3.71325 16.8128 3.75942 16.7629C3.90103 16.6096 4.0927 16.4354 4.28704 16.2588L12.0886 9.16646C12.2352 9.0332 12.3832 8.89856 12.5194 8.79246C12.6718 8.6737 12.8646 8.54529 13.1126 8.46473C13.4582 8.35247 13.8286 8.34078 14.1807 8.43104C14.4333 8.4958 14.6338 8.6118 14.7933 8.72072C14.9359 8.81803 15.0922 8.94308 15.2468 9.06684L17.8325 11.1354C17.8532 11.1519 17.8737 11.1683 17.8941 11.1846C18.1797 11.4126 18.4407 11.621 18.6455 11.8818C18.9 12.2062 19.0808 12.5822 19.175 12.9836C19.2508 13.3064 19.2504 13.6404 19.2501 14.0059C19.25 14.032 19.25 14.0582 19.25 14.0847V14.1195C19.25 14.2705 19.25 14.4155 19.2496 14.5545C19.2499 14.5641 19.25 14.5737 19.25 14.5834C19.25 14.6281 19.25 14.6721 19.2501 14.7156C19.2505 15.4381 19.2509 15.9905 19.1222 16.4706C18.9705 17.0368 18.6917 17.5487 18.3177 17.9745C18.1799 18.1314 18.0293 18.2765 17.8673 18.4084C17.4638 18.7369 16.99 18.9831 16.4706 19.1222C15.9905 19.2509 15.4381 19.2505 14.7155 19.2501C14.6721 19.25 14.628 19.25 14.5833 19.25H14.1774C14.1582 19.25 14.1389 19.25 14.1195 19.25H6.1092C6.08617 19.25 6.06326 19.25 6.04047 19.25L5.4435 19.25C5.21138 19.2501 4.9821 19.2501 4.78845 19.2376C4.60083 19.2315 4.4256 19.2226 4.26237 19.2092C3.74197 19.1667 3.25613 19.075 2.79754 18.8413C2.09193 18.4818 1.51825 17.9081 1.15873 17.2025C0.92506 16.7439 0.833308 16.2581 0.790789 15.7376C0.749975 15.2381 0.749987 14.6262 0.750001 13.8908V6.10925C0.749987 5.37386 0.749975 4.76193 0.790789 4.26239C0.833308 3.74198 0.92506 3.25615 1.15873 2.79756C1.51825 2.09195 2.09193 1.51827 2.79754 1.15875C3.25613 0.925079 3.74197 0.833327 4.26237 0.790808C4.76191 0.749995 5.37384 0.750006 6.10923 0.75002ZM16.8588 16.6028C16.9602 16.478 17.0446 16.3387 17.109 16.1883C17.1575 16.0749 17.2007 15.9056 17.2248 15.5635C17.2494 15.2121 17.25 14.7584 17.25 14.0847C17.25 13.5934 17.2438 13.5082 17.2279 13.4407C17.2002 13.3226 17.1471 13.212 17.0722 13.1166C17.0294 13.0621 16.9668 13.0041 16.5831 12.6971L14.019 10.6458C13.8678 10.5249 13.7761 10.4521 13.7083 10.4026C13.6438 10.4562 13.5568 10.5347 13.4135 10.6649L6.16994 17.25H14.0846C14.7584 17.25 15.2121 17.2494 15.5635 17.2248C15.9056 17.2008 16.0749 17.1575 16.1883 17.109C16.3599 17.0356 16.517 16.9359 16.6548 16.8149C16.7286 16.7501 16.7969 16.6791 16.8588 16.6028ZM6.79167 5.95835C6.33143 5.95835 5.95833 6.33145 5.95833 6.79169C5.95833 7.25192 6.33143 7.62502 6.79167 7.62502C7.2519 7.62502 7.625 7.25192 7.625 6.79169C7.625 6.33145 7.2519 5.95835 6.79167 5.95835ZM3.95833 6.79169C3.95833 5.22688 5.22686 3.95835 6.79167 3.95835C8.35647 3.95835 9.625 5.22688 9.625 6.79169C9.625 8.35649 8.35647 9.62502 6.79167 9.62502C5.22686 9.62502 3.95833 8.35649 3.95833 6.79169Z" fill="#747995"/>
</svg>
