<svg width="22" height="22" viewBox="0 0 22 22" fill="none" xmlns="http://www.w3.org/2000/svg">
<path fill-rule="evenodd" clip-rule="evenodd" d="M11 0C11.6075 0 12.1 0.492487 12.1 1.1V13.8444L16.8222 9.12218C17.2518 8.69261 17.9482 8.69261 18.3778 9.12218C18.8074 9.55176 18.8074 10.2482 18.3778 10.6778L11.7778 17.2778C11.3482 17.7074 10.6518 17.7074 10.2222 17.2778L3.62218 10.6778C3.19261 10.2482 3.19261 9.55176 3.62218 9.12218C4.05176 8.69261 4.74824 8.69261 5.17782 9.12218L9.9 13.8444V1.1C9.9 0.492487 10.3925 0 11 0ZM0 20.9C0 20.2925 0.492487 19.8 1.1 19.8H20.9C21.5075 19.8 22 20.2925 22 20.9C22 21.5075 21.5075 22 20.9 22H1.1C0.492487 22 0 21.5075 0 20.9Z" fill="#747995"/>
</svg>
