<svg width="22" height="22" viewBox="0 0 22 22" fill="none" xmlns="http://www.w3.org/2000/svg">
<path fill-rule="evenodd" clip-rule="evenodd" d="M15.2929 1.29289C16.788 -0.202204 19.212 -0.202202 20.7071 1.29289C22.2022 2.78799 22.2022 5.21201 20.7071 6.70711L17.7097 9.70448C17.7088 9.70535 17.708 9.70623 17.7071 9.70711C17.7062 9.70798 17.7053 9.70885 17.7044 9.70973L7.50078 19.9134C7.48402 19.9301 7.46741 19.9468 7.45093 19.9633C7.20603 20.2086 6.99001 20.4249 6.73334 20.5942C6.50768 20.743 6.26295 20.8606 6.00578 20.9439C5.71327 21.0386 5.40936 21.0721 5.06483 21.1101C5.04165 21.1126 5.01829 21.1152 4.99474 21.1178L1.61038 21.4939C1.30845 21.5274 1.00765 21.4219 0.792839 21.2071C0.578031 20.9923 0.472515 20.6915 0.506062 20.3896L0.882102 17.0052C0.88472 16.9816 0.887298 16.9583 0.889855 16.9351C0.927857 16.5906 0.961379 16.2867 1.05607 15.9942C1.13932 15.737 1.25695 15.4923 1.40576 15.2666C1.57501 15.0099 1.79138 14.7939 2.03667 14.549C2.05317 14.5325 2.06981 14.5159 2.08657 14.4992L15.2929 1.29289ZM13 6.41421L3.50078 15.9134C3.17827 16.2359 3.1184 16.3024 3.07541 16.3676C3.02581 16.4428 2.9866 16.5244 2.95885 16.6101C2.9348 16.6844 2.92024 16.7728 2.86987 17.2261L2.63187 19.3681L4.77388 19.1301C5.22718 19.0797 5.3155 19.0651 5.3898 19.0411C5.47553 19.0133 5.5571 18.9741 5.63232 18.9245C5.69752 18.8815 5.76406 18.8217 6.08657 18.4992L15.5858 8.99999L13 6.41421ZM17 7.58578L14.4142 5L16.7071 2.7071C17.4211 1.99306 18.5788 1.99306 19.2929 2.7071C20.0069 3.42115 20.0069 4.57885 19.2929 5.29289L17 7.58578Z" fill="#747995"/>
</svg>
