<svg width="22" height="18" viewBox="0 0 22 18" fill="none" xmlns="http://www.w3.org/2000/svg">
<path fill-rule="evenodd" clip-rule="evenodd" d="M5.7587 4.31291e-07H16.2413C17.0463 -1.23241e-05 17.7106 -2.28137e-05 18.2518 0.0441945C18.8139 0.0901197 19.3306 0.188684 19.816 0.435975C20.5686 0.819468 21.1805 1.43139 21.564 2.18404C21.8027 2.65238 21.9028 3.14994 21.9508 3.68931C22.0042 3.8527 22.0136 4.02505 21.9819 4.18959C22 4.63971 22 5.16035 22 5.75868V12.2413C22 13.0463 22 13.7106 21.9558 14.2518C21.9099 14.8139 21.8113 15.3306 21.564 15.816C21.1805 16.5686 20.5686 17.1805 19.816 17.564C19.3306 17.8113 18.8139 17.9099 18.2518 17.9558C17.7106 18 17.0463 18 16.2413 18H5.75867C4.95371 18 4.28936 18 3.74817 17.9558C3.18607 17.9099 2.66937 17.8113 2.18403 17.564C1.43138 17.1805 0.819462 16.5686 0.435968 15.816C0.188677 15.3306 0.0901131 14.8139 0.0441879 14.2518C-2.94708e-05 13.7106 -1.89787e-05 13.0463 -6.22335e-06 12.2413V5.7587C-1.57601e-05 5.16037 -2.39853e-05 4.63972 0.0181311 4.1896C-0.0136252 4.02505 -0.00425222 3.85269 0.0492099 3.6893C0.0971979 3.14993 0.197336 2.65238 0.435968 2.18404C0.819462 1.43139 1.43138 0.819468 2.18403 0.435975C2.66937 0.188684 3.18607 0.0901197 3.74817 0.0441945C4.28936 -2.28137e-05 4.95372 -1.23241e-05 5.7587 4.31291e-07ZM1.99999 5.92066V12.2C1.99999 13.0566 2.00077 13.6389 2.03755 14.089C2.07337 14.5274 2.13829 14.7516 2.21798 14.908C2.40973 15.2843 2.71569 15.5903 3.09201 15.782C3.24841 15.8617 3.47262 15.9266 3.91103 15.9625C4.36112 15.9992 4.94341 16 5.79999 16H16.2C17.0566 16 17.6389 15.9992 18.089 15.9625C18.5274 15.9266 18.7516 15.8617 18.908 15.782C19.2843 15.5903 19.5903 15.2843 19.782 14.908C19.8617 14.7516 19.9266 14.5274 19.9624 14.089C19.9992 13.6389 20 13.0566 20 12.2V5.92066L13.4085 10.5347C13.3697 10.5618 13.3313 10.5888 13.2932 10.6156C12.7485 10.998 12.2703 11.3338 11.7256 11.4696C11.2492 11.5884 10.7508 11.5884 10.2744 11.4696C9.7297 11.3338 9.25145 10.998 8.7068 10.6156C8.66869 10.5888 8.63025 10.5618 8.59145 10.5347L1.99999 5.92066ZM19.9172 3.53729L12.2616 8.89621C11.5327 9.40647 11.3782 9.49501 11.2419 9.529C11.083 9.56859 10.9169 9.56859 10.7581 9.529C10.6218 9.49501 10.4673 9.40647 9.73838 8.89621L2.08276 3.53728C2.11849 3.33012 2.16497 3.19607 2.21798 3.09202C2.40973 2.7157 2.71569 2.40973 3.09201 2.21799C3.24841 2.1383 3.47262 2.07337 3.91103 2.03755C4.36112 2.00078 4.94341 2 5.79999 2H16.2C17.0566 2 17.6389 2.00078 18.089 2.03755C18.5274 2.07337 18.7516 2.1383 18.908 2.21799C19.2843 2.40973 19.5903 2.7157 19.782 3.09202C19.835 3.19607 19.8815 3.33012 19.9172 3.53729Z" fill="#747995"/>
</svg>
