<svg width="22" height="16" viewBox="0 0 22 16" fill="none" xmlns="http://www.w3.org/2000/svg">
<path fill-rule="evenodd" clip-rule="evenodd" d="M9.40682 1.68238e-07H12.5929C13.8698 -7.58037e-06 14.8871 -1.37761e-05 15.7117 0.0653017C16.5575 0.132298 17.2812 0.272416 17.9533 0.596918C19.0417 1.12248 19.946 1.9645 20.5478 3.01271C20.9193 3.65992 21.1106 4.37184 21.2377 5.21073C21.3616 6.02856 21.4341 7.04325 21.5251 8.31682L21.7741 11.8033C21.9361 14.071 20.14 16 17.8664 16C16.7038 16 15.6011 15.4836 14.8568 14.5904L14.4817 14.1402C14.1163 13.7017 14.0064 13.5752 13.8914 13.4773C13.6184 13.2448 13.2878 13.09 12.9344 13.0291C12.7856 13.0034 12.6181 13 12.0473 13H9.95245C9.38167 13 9.2142 13.0034 9.06535 13.0291C8.71192 13.09 8.38138 13.2448 8.10833 13.4773C7.99333 13.5752 7.88351 13.7017 7.5181 14.1402L7.14294 14.5904C6.39862 15.4836 5.29601 16 4.13334 16C1.85978 16 0.0636881 14.071 0.225673 11.8033L0.474701 8.31686C0.565663 7.04328 0.638136 6.02857 0.762035 5.21073C0.889123 4.37184 1.08045 3.65992 1.45201 3.01271C2.05378 1.9645 2.95809 1.12248 4.04651 0.596918C4.71854 0.272416 5.44229 0.132298 6.2881 0.0653017C7.1127 -1.37761e-05 8.12999 -7.58037e-06 9.40682 1.68238e-07ZM6.44603 2.05906C5.72185 2.11642 5.2743 2.22502 4.91617 2.39795C4.19056 2.74832 3.58768 3.30967 3.1865 4.00847C2.98849 4.35338 2.84828 4.79206 2.73947 5.5103C2.62883 6.24064 2.56126 7.17632 2.46662 8.50127L2.22059 11.9458C2.1413 13.0558 3.02046 14 4.13334 14C4.70245 14 5.24216 13.7472 5.6065 13.31L5.98166 12.8598C5.99785 12.8404 6.01381 12.8212 6.02957 12.8023C6.32622 12.4461 6.54982 12.1776 6.81165 11.9546C7.35774 11.4896 8.01884 11.1799 8.72569 11.0581C9.0646 10.9997 9.41402 10.9998 9.87761 11C9.90222 11 9.92717 11 9.95245 11H12.0473C12.0726 11 12.0975 11 12.1222 11C12.5857 10.9998 12.9352 10.9997 13.2741 11.0581C13.9809 11.1799 14.642 11.4896 15.1881 11.9546C15.4499 12.1776 15.6736 12.4461 15.9702 12.8023C15.986 12.8212 16.0019 12.8404 16.0181 12.8598L16.3933 13.31C16.7576 13.7472 17.2973 14 17.8664 14C18.9793 14 19.8585 13.0558 19.7792 11.9458L19.5331 8.50127C19.4385 7.17632 19.3709 6.24064 19.2603 5.5103C19.1515 4.79206 19.0113 4.35338 18.8133 4.00848C18.4121 3.30967 17.8092 2.74832 17.0836 2.39795C16.7255 2.22502 16.2779 2.11642 15.5537 2.05906C14.8174 2.00073 13.8793 2 12.5509 2H9.44884C8.12051 2 7.1824 2.00073 6.44603 2.05906ZM6.99988 4C7.55217 4 7.99988 4.44772 7.99988 5V6H8.99988C9.55217 6 9.99988 6.44772 9.99988 7C9.99988 7.55229 9.55217 8 8.99988 8H7.99988V9C7.99988 9.55229 7.55217 10 6.99988 10C6.4476 10 5.99988 9.55229 5.99988 9V8H4.99988C4.4476 8 3.99988 7.55229 3.99988 7C3.99988 6.44772 4.4476 6 4.99988 6H5.99988V5C5.99988 4.44772 6.4476 4 6.99988 4ZM15.9999 6C15.9999 5.44772 16.4476 5 16.9999 5H17.0099C17.5622 5 18.0099 5.44772 18.0099 6C18.0099 6.55229 17.5622 7 17.0099 7H16.9999C16.4476 7 15.9999 6.55229 15.9999 6ZM12.9999 8C12.9999 7.44772 13.4476 7 13.9999 7H14.0099C14.5622 7 15.0099 7.44772 15.0099 8C15.0099 8.55228 14.5622 9 14.0099 9H13.9999C13.4476 9 12.9999 8.55228 12.9999 8Z" fill="#747995"/>
</svg>
