<svg width="20" height="20" viewBox="0 0 20 20" fill="none" xmlns="http://www.w3.org/2000/svg">
<path d="M7.49992 16.6673C7.04159 16.6673 6.64909 16.504 6.32242 16.1773C5.99575 15.8507 5.8327 15.4584 5.83325 15.0007C5.83325 14.5423 5.99659 14.1498 6.32325 13.8232C6.64992 13.4965 7.04214 13.3334 7.49992 13.334C7.95825 13.334 8.35075 13.4973 8.67742 13.824C9.00409 14.1507 9.16714 14.5429 9.16659 15.0007C9.16659 15.459 9.00325 15.8515 8.67659 16.1782C8.34992 16.5048 7.9577 16.6679 7.49992 16.6673ZM7.49992 11.6673C7.04159 11.6673 6.64909 11.504 6.32242 11.1773C5.99575 10.8507 5.8327 10.4584 5.83325 10.0007C5.83325 9.54232 5.99659 9.14982 6.32325 8.82315C6.64992 8.49649 7.04214 8.33343 7.49992 8.33399C7.95825 8.33399 8.35075 8.49732 8.67742 8.82399C9.00409 9.15065 9.16714 9.54287 9.16659 10.0007C9.16659 10.459 9.00325 10.8515 8.67659 11.1782C8.34992 11.5048 7.9577 11.6679 7.49992 11.6673ZM7.49992 6.66732C7.04159 6.66732 6.64909 6.50399 6.32242 6.17732C5.99575 5.85065 5.8327 5.45843 5.83325 5.00065C5.83325 4.54232 5.99659 4.14982 6.32325 3.82315C6.64992 3.49649 7.04214 3.33343 7.49992 3.33399C7.95825 3.33399 8.35075 3.49732 8.67742 3.82399C9.00409 4.15065 9.16714 4.54287 9.16659 5.00065C9.16659 5.45899 9.00325 5.85149 8.67659 6.17815C8.34992 6.50482 7.9577 6.66787 7.49992 6.66732Z" fill="#747995"/>
<path d="M12.4999 16.6673C12.0416 16.6673 11.6491 16.504 11.3224 16.1773C10.9958 15.8507 10.8327 15.4584 10.8333 15.0007C10.8333 14.5423 10.9966 14.1498 11.3233 13.8232C11.6499 13.4965 12.0421 13.3334 12.4999 13.334C12.9583 13.334 13.3508 13.4973 13.6774 13.824C14.0041 14.1507 14.1671 14.5429 14.1666 15.0007C14.1666 15.459 14.0033 15.8515 13.6766 16.1782C13.3499 16.5048 12.9577 16.6679 12.4999 16.6673ZM12.4999 11.6673C12.0416 11.6673 11.6491 11.504 11.3224 11.1773C10.9958 10.8507 10.8327 10.4584 10.8333 10.0007C10.8333 9.54232 10.9966 9.14982 11.3233 8.82315C11.6499 8.49649 12.0421 8.33343 12.4999 8.33399C12.9583 8.33399 13.3508 8.49732 13.6774 8.82399C14.0041 9.15065 14.1671 9.54287 14.1666 10.0007C14.1666 10.459 14.0033 10.8515 13.6766 11.1782C13.3499 11.5048 12.9577 11.6679 12.4999 11.6673ZM12.4999 6.66732C12.0416 6.66732 11.6491 6.50399 11.3224 6.17732C10.9958 5.85065 10.8327 5.45843 10.8333 5.00065C10.8333 4.54232 10.9966 4.14982 11.3233 3.82315C11.6499 3.49649 12.0421 3.33343 12.4999 3.33399C12.9583 3.33399 13.3508 3.49732 13.6774 3.82399C14.0041 4.15065 14.1671 4.54287 14.1666 5.00065C14.1666 5.45899 14.0033 5.85149 13.6766 6.17815C13.3499 6.50482 12.9577 6.66787 12.4999 6.66732Z" fill="#747995"/>
</svg>
