<svg width="20" height="20" viewBox="0 0 20 20" fill="none" xmlns="http://www.w3.org/2000/svg">
<path fill-rule="evenodd" clip-rule="evenodd" d="M17.968 2.19878C17.8297 2.20969 17.6394 2.24052 17.3014 2.29686L8.50136 3.76353C8.24904 3.80558 8.11446 3.82868 8.01864 3.85219C8.01523 3.85303 8.01198 3.85385 8.0089 3.85463C8.00864 3.85779 8.00837 3.86113 8.0081 3.86464C8.00066 3.96302 8 4.09956 8 4.35536V16C8 18.2091 6.20914 20 4 20C1.79086 20 0 18.2091 0 16C0 13.7908 1.79086 12 4 12C4.72857 12 5.41165 12.1947 6 12.5351V4.35536C6 4.34589 6 4.33641 6 4.32694C5.99997 4.11083 5.99994 3.89699 6.0138 3.71381C6.02921 3.51007 6.0654 3.27323 6.17521 3.02847C6.32965 2.6842 6.57833 2.39064 6.89253 2.1817C7.11591 2.03316 7.34357 1.95851 7.54201 1.90982C7.72042 1.86604 7.93135 1.83091 8.14452 1.79541L17.0074 0.31826C17.2977 0.269841 17.5753 0.223552 17.8106 0.204981C18.0646 0.184931 18.3747 0.186075 18.6964 0.305569C19.1347 0.46839 19.5022 0.77967 19.7349 1.1853C19.9056 1.483 19.9577 1.7886 19.9797 2.04249C20.0001 2.27766 20 2.55904 20 2.85338L20 14C20 16.2091 18.2091 18 16 18C13.7909 18 12 16.2091 12 14C12 11.7908 13.7909 9.99996 16 9.99996C16.7286 9.99996 17.4117 10.1947 18 10.5351V2.8887C18 2.54599 17.9991 2.35318 17.9872 2.21505C17.9866 2.20884 17.9861 2.203 17.9855 2.1975C17.98 2.19787 17.9742 2.19829 17.968 2.19878ZM18 14C18 12.8954 17.1046 12 16 12C14.8954 12 14 12.8954 14 14C14 15.1045 14.8954 16 16 16C17.1046 16 18 15.1045 18 14ZM6 16C6 14.8954 5.10457 14 4 14C2.89543 14 2 14.8954 2 16C2 17.1045 2.89543 18 4 18C5.10457 18 6 17.1045 6 16Z" fill="#747995"/>
</svg>
