<svg width="22" height="18" viewBox="0 0 22 18" fill="none" xmlns="http://www.w3.org/2000/svg">
<path fill-rule="evenodd" clip-rule="evenodd" d="M7.16134 -0.000165018C7.20928 -9.33729e-05 7.25763 -2.11321e-05 7.3064 -2.11321e-05H14.6935C14.7423 -2.11321e-05 14.7907 -9.33729e-05 14.8386 -0.000165018C15.5221 -0.00118557 16.122 -0.0020813 16.6565 0.208141C17.1239 0.391962 17.5376 0.69018 17.8598 1.07545C18.2283 1.51606 18.4171 2.08544 18.6323 2.73416C18.6474 2.77966 18.6626 2.82556 18.678 2.87182L19.584 5.58991L20.5528 5.10555C21.0467 4.85856 21.6474 5.05879 21.8944 5.55277C22.1414 6.04674 21.9412 6.64742 21.4472 6.89441L20.8498 7.1931C21.1354 7.48312 21.3769 7.81682 21.564 8.18402C21.8113 8.66935 21.9099 9.18606 21.9558 9.74815C22 10.2893 22 10.9537 22 11.7587V14.5C22 14.5282 22 14.5562 22 14.5839C22.0003 14.9646 22.0006 15.2924 21.9423 15.5852C21.7056 16.7753 20.7753 17.7056 19.5852 17.9423C19.2924 18.0006 18.9645 18.0003 18.5838 18C18.5562 18 18.5282 18 18.5 18H18C16.5135 18 15.2795 16.9188 15.0415 15.5H6.9585C6.72046 16.9188 5.48647 18 3.99997 18H3.49997C3.47173 18 3.44378 18 3.4161 18C3.0354 18.0003 2.70756 18.0006 2.4147 17.9423C1.22463 17.7056 0.294339 16.7753 0.057619 15.5852C-0.000633299 15.2924 -0.000372349 14.9646 -6.94384e-05 14.5839C-4.73846e-05 14.5562 -2.50925e-05 14.5282 -2.50925e-05 14.5L-2.55693e-05 11.7587C-3.83247e-05 10.9537 -4.88162e-05 10.2893 0.0441685 9.74815C0.0900937 9.18606 0.188658 8.66935 0.435949 8.18402C0.623043 7.81682 0.864508 7.48312 1.15016 7.1931L0.552761 6.89441C0.0587828 6.64742 -0.141442 6.04674 0.105548 5.55277C0.352537 5.05879 0.95321 4.85856 1.44719 5.10555L2.41591 5.58991L3.32193 2.87182C3.33736 2.82555 3.35258 2.77966 3.36767 2.73416C3.58284 2.08543 3.77168 1.51606 4.14015 1.07545C4.46233 0.690181 4.87609 0.391962 5.34347 0.208142C5.87799 -0.0020813 6.47787 -0.00118557 7.16134 -0.000165018ZM4.38356 6.01149C4.78758 5.99996 5.24444 5.99997 5.75868 5.99998H16.2413C16.7555 5.99997 17.2124 5.99996 17.6164 6.01149L16.7806 3.50428C16.4914 2.63651 16.4177 2.46868 16.3256 2.35847C16.2182 2.23005 16.0803 2.13064 15.9245 2.06937C15.7908 2.01678 15.6082 1.99998 14.6935 1.99998H7.3064C6.3917 1.99998 6.20918 2.01679 6.07549 2.06937C5.91969 2.13064 5.78177 2.23005 5.67438 2.35847C5.58222 2.46868 5.50856 2.63651 5.2193 3.50428L4.38356 6.01149ZM3.91101 8.03753C3.4726 8.07335 3.24839 8.13828 3.09199 8.21797C2.71567 8.40971 2.40971 8.71567 2.21796 9.092C2.13827 9.2484 2.07335 9.4726 2.03753 9.91102C2.00075 10.3611 1.99997 10.9434 1.99997 11.8V14.5C1.99997 15.0126 2.00482 15.1228 2.01919 15.1951C2.0981 15.5918 2.40819 15.9019 2.80488 15.9808C2.87713 15.9951 2.98739 16 3.49997 16H3.99997C4.55226 16 4.99997 15.5523 4.99997 15C4.99997 14.1716 5.67155 13.5 6.49997 13.5H15.5C16.3284 13.5 17 14.1716 17 15C17 15.5523 17.4477 16 18 16H18.5C19.0126 16 19.1228 15.9951 19.1951 15.9808C19.5918 15.9019 19.9019 15.5918 19.9808 15.1951C19.9951 15.1228 20 15.0126 20 14.5V11.8C20 10.9434 19.9992 10.3611 19.9624 9.91102C19.9266 9.4726 19.8617 9.2484 19.782 9.092C19.5902 8.71567 19.2843 8.40971 18.908 8.21797C18.7516 8.13828 18.5274 8.07335 18.0889 8.03753C17.6388 8.00076 17.0566 7.99998 16.2 7.99998H5.79997C4.9434 7.99998 4.3611 8.00076 3.91101 8.03753ZM2.99997 9.99998C2.99997 9.44769 3.44769 8.99998 3.99997 8.99998H6.99997C7.55226 8.99998 7.99998 9.44769 7.99998 9.99998C7.99998 10.5523 7.55226 11 6.99997 11H3.99997C3.44769 11 2.99997 10.5523 2.99997 9.99998ZM14 9.99998C14 9.44769 14.4477 8.99998 15 8.99998H18C18.5523 8.99998 19 9.44769 19 9.99998C19 10.5523 18.5523 11 18 11H15C14.4477 11 14 10.5523 14 9.99998Z" fill="#747995"/>
</svg>
