<svg width="22" height="22" viewBox="0 0 22 22" fill="none" xmlns="http://www.w3.org/2000/svg">
<path fill-rule="evenodd" clip-rule="evenodd" d="M5.90502 2.66222C5.62124 2.51868 5.2861 2.51868 5.00232 2.66222C4.8956 2.7162 4.76256 2.83146 4.17554 3.41848L4.0179 3.57612C3.45769 4.13634 3.30668 4.29836 3.18597 4.51324C3.04606 4.76231 2.92884 5.21305 2.92969 5.49872C2.93045 5.75293 2.96798 5.90602 3.13324 6.48827C3.94884 9.36184 5.48744 12.0736 7.75177 14.3379C10.0161 16.6023 12.7279 18.1409 15.6014 18.9565C16.1837 19.1217 16.3368 19.1593 16.591 19.16C16.8767 19.1609 17.3274 19.0437 17.5765 18.9037C17.7914 18.783 17.9534 18.632 18.5136 18.0718L18.6712 17.9142C19.2582 17.3271 19.3735 17.1941 19.4275 17.0874C19.571 16.8036 19.571 16.4685 19.4275 16.1847C19.3735 16.078 19.2583 15.9449 18.6712 15.3579L19.3783 14.6508L18.6712 15.3579L18.4764 15.163C18.0907 14.7773 18.0039 14.6984 17.9382 14.6556C17.6067 14.4401 17.1795 14.4401 16.848 14.6556C16.7823 14.6984 16.6955 14.7773 16.3098 15.163C16.3022 15.1707 16.2944 15.1785 16.2864 15.1865C16.1967 15.2766 16.0831 15.3906 15.9466 15.4883L15.3644 14.6752L15.9466 15.4883C15.4596 15.837 14.7976 15.9499 14.2226 15.7823C14.0622 15.7355 13.9302 15.6719 13.8275 15.6224C13.8193 15.6185 13.8114 15.6146 13.8037 15.6109C12.2537 14.8667 10.802 13.8527 9.51953 12.5702C8.23706 11.2877 7.22297 9.83601 6.4788 8.28605C6.47507 8.2783 6.47125 8.27036 6.46733 8.26224C6.41783 8.15954 6.35419 8.02754 6.30744 7.86716L7.26748 7.5873L6.30744 7.86716C6.13981 7.29212 6.25271 6.63006 6.60141 6.14307L6.60142 6.14307C6.69911 6.00663 6.81314 5.89302 6.9032 5.80329C6.91122 5.79529 6.91906 5.78749 6.92667 5.77987C7.31238 5.39416 7.39136 5.30744 7.43409 5.24171L7.4341 5.2417C7.64959 4.91026 7.64959 4.48297 7.4341 4.15153C7.39136 4.08579 7.31238 3.99906 6.92667 3.61335L6.7318 3.41848C6.14478 2.83146 6.01174 2.7162 5.90502 2.66222ZM4.09963 0.877519C4.95097 0.446914 5.95637 0.446914 6.80771 0.877519C7.24031 1.09632 7.61586 1.47284 8.0503 1.90839C8.08188 1.94005 8.11377 1.97202 8.14601 2.00427L8.34088 2.19914C8.36213 2.22039 8.38318 2.2414 8.40402 2.2622C8.69068 2.54838 8.93761 2.79489 9.11085 3.06134L8.27247 3.60643L9.11085 3.06134C9.75734 4.05568 9.75734 5.33755 9.11085 6.33189C8.93761 6.59834 8.69068 6.84485 8.40402 7.13102C8.38318 7.15182 8.36213 7.17284 8.34088 7.19409C8.28328 7.2517 8.25389 7.28124 8.23342 7.30289C8.23304 7.30453 8.23268 7.30633 8.23235 7.30827C8.23198 7.31044 8.23171 7.31245 8.23151 7.31426C8.23481 7.32157 8.23927 7.33124 8.24542 7.34431C8.25503 7.36473 8.26632 7.38827 8.28176 7.42041C8.92958 8.76969 9.81307 10.0353 10.9337 11.156C12.0544 12.2766 13.32 13.1601 14.6693 13.808L14.2365 14.7094L14.6693 13.808C14.7014 13.8234 14.725 13.8347 14.7454 13.8443C14.7585 13.8504 14.7681 13.8549 14.7755 13.8582C14.7773 13.858 14.7793 13.8577 14.7814 13.8574C14.7834 13.857 14.7852 13.8567 14.7868 13.8563C14.8085 13.8358 14.838 13.8064 14.8956 13.7488C14.9169 13.7276 14.9379 13.7065 14.9587 13.6857C15.2449 13.399 15.4914 13.1521 15.7578 12.9789C16.7522 12.3324 18.034 12.3324 19.0284 12.9789C19.2948 13.1521 19.5413 13.399 19.8275 13.6857C19.8483 13.7065 19.8693 13.7276 19.8906 13.7488L19.1835 14.4559L19.8906 13.7488L20.0854 13.9437C20.1177 13.9759 20.1497 14.0078 20.1813 14.0394C20.6169 14.4738 20.9934 14.8494 21.2122 15.282C21.6428 16.1333 21.6428 17.1387 21.2122 17.9901C20.9934 18.4227 20.6169 18.7982 20.1813 19.2327C20.1497 19.2643 20.1177 19.2961 20.0854 19.3284L19.9278 19.486C19.905 19.5089 19.8824 19.5314 19.8601 19.5538C19.3948 20.0195 19.0381 20.3767 18.556 20.6475C18.0061 20.9564 17.2158 21.1619 16.585 21.16C16.0332 21.1584 15.6307 21.044 15.1117 20.8965C15.0931 20.8912 15.0743 20.8859 15.0554 20.8805C11.8621 19.9741 8.84919 18.2638 6.33755 15.7522C3.82592 13.2405 2.11557 10.2276 1.20923 7.03436C1.20386 7.01543 1.19853 6.99666 1.19323 6.97804C1.04573 6.45903 0.931342 6.05656 0.9297 5.50467C0.927823 4.8739 1.13333 4.08366 1.44226 3.53372L1.44226 3.53371C1.71306 3.05165 2.07021 2.69486 2.53594 2.2296C2.55828 2.20729 2.58086 2.18474 2.60369 2.1619L2.76132 2.00427C2.79357 1.97202 2.82546 1.94005 2.85704 1.90839C3.29148 1.47284 3.66703 1.09632 4.09963 0.87752L4.54586 1.75976L4.09963 0.877519Z" fill="#747995"/>
</svg>
