<svg width="22" height="20" viewBox="0 0 22 20" fill="none" xmlns="http://www.w3.org/2000/svg">
<path fill-rule="evenodd" clip-rule="evenodd" d="M4.16146 8.6011e-07L4.64281 1.57537e-06C5.72659 -8.43821e-06 6.60075 -1.64248e-05 7.30863 0.0578196C8.03748 0.117369 8.67766 0.243182 9.26995 0.544969C9.95351 0.89326 10.5442 1.39228 11 1.99999C11.4558 1.39228 12.0465 0.89326 12.73 0.544969C13.3223 0.243182 13.9625 0.117369 14.6914 0.0578196C15.3993 -1.64248e-05 16.2734 -8.43821e-06 17.3572 1.57537e-06L17.8385 8.6011e-07C18.3657 -1.70213e-05 18.8205 -3.25181e-05 19.195 0.0305712C19.5904 0.0628722 19.9836 0.134188 20.362 0.326982C20.9265 0.614603 21.3854 1.07354 21.673 1.63803C21.8658 2.01641 21.9371 2.40963 21.9694 2.80497C22 3.17954 22 3.6343 22 4.16143V12.8386C22 13.3657 22 13.8205 21.9694 14.195C21.9371 14.5904 21.8658 14.9836 21.673 15.362C21.3854 15.9265 20.9265 16.3854 20.362 16.673C19.9836 16.8658 19.5904 16.9371 19.195 16.9694C18.8205 17 18.3657 17 17.8386 17H16.4252C15.1106 17 14.6617 17.0102 14.269 17.1295C13.8916 17.2441 13.5405 17.4319 13.2359 17.6824C12.9188 17.943 12.6613 18.3108 11.9321 19.4046L11.8321 19.5547C11.6466 19.8329 11.3344 20 11 20C10.6656 20 10.3534 19.8329 10.168 19.5547L10.0679 19.4046C9.33872 18.3108 9.08122 17.943 8.76414 17.6824C8.45946 17.4319 8.10839 17.2441 7.73102 17.1295C7.3383 17.0102 6.88938 17 5.57483 17H4.16144C3.6343 17 3.17954 17 2.80497 16.9694C2.40963 16.9371 2.01641 16.8658 1.63803 16.673C1.07354 16.3854 0.614602 15.9265 0.326982 15.362C0.134188 14.9836 0.0628723 14.5904 0.0305713 14.195C-3.25181e-05 13.8205 -1.70213e-05 13.3657 8.60109e-07 12.8385V4.16146C-1.70213e-05 3.63431 -3.25181e-05 3.17955 0.0305713 2.80497C0.0628723 2.40963 0.134188 2.01641 0.326982 1.63803C0.614602 1.07354 1.07354 0.614602 1.63803 0.326982C2.01641 0.134188 2.40963 0.0628723 2.80497 0.0305712C3.17955 -3.25181e-05 3.63431 -1.70213e-05 4.16146 8.6011e-07ZM10 7.4C10 6.2634 9.99922 5.47108 9.94883 4.85424C9.89938 4.24907 9.80721 3.90139 9.67302 3.63803C9.3854 3.07354 8.92646 2.6146 8.36197 2.32698C8.09862 2.1928 7.75093 2.10062 7.14576 2.05118C6.52892 2.00078 5.73661 2 4.6 2H4.2C3.62345 2 3.25117 2.00078 2.96784 2.02393C2.69617 2.04612 2.59546 2.0838 2.54601 2.109C2.35785 2.20487 2.20487 2.35785 2.109 2.54601C2.0838 2.59546 2.04612 2.69617 2.02393 2.96784C2.00078 3.25117 2 3.62345 2 4.2V12.8C2 13.3766 2.00078 13.7488 2.02393 14.0322C2.04612 14.3038 2.0838 14.4045 2.109 14.454C2.20487 14.6422 2.35785 14.7951 2.54601 14.891C2.59546 14.9162 2.69617 14.9539 2.96784 14.9761C3.25117 14.9992 3.62345 15 4.2 15H5.57483C5.62469 15 5.67388 15 5.72242 15C6.83207 14.9996 7.59938 14.9993 8.31219 15.2158C8.92713 15.4025 9.50016 15.706 10 16.1095V7.4ZM12 16.1095C12.4998 15.706 13.0729 15.4025 13.6878 15.2158C14.4006 14.9993 15.1679 14.9996 16.2776 15C16.3261 15 16.3753 15 16.4252 15H17.8C18.3766 15 18.7488 14.9992 19.0322 14.9761C19.3038 14.9539 19.4046 14.9162 19.454 14.891C19.6422 14.7951 19.7951 14.6422 19.891 14.454C19.9162 14.4045 19.9539 14.3038 19.9761 14.0322C19.9992 13.7488 20 13.3766 20 12.8V4.2C20 3.62345 19.9992 3.25117 19.9761 2.96784C19.9539 2.69617 19.9162 2.59546 19.891 2.54601C19.7951 2.35785 19.6422 2.20487 19.454 2.109C19.4046 2.0838 19.3038 2.04612 19.0322 2.02393C18.7488 2.00078 18.3766 2 17.8 2H17.4C16.2634 2 15.4711 2.00078 14.8542 2.05118C14.2491 2.10062 13.9014 2.1928 13.638 2.32698C13.0735 2.6146 12.6146 3.07354 12.327 3.63803C12.1928 3.90139 12.1006 4.24907 12.0512 4.85424C12.0008 5.47108 12 6.2634 12 7.4V16.1095Z" fill="#747995"/>
</svg>
