<svg width="22" height="22" viewBox="0 0 22 22" fill="none" xmlns="http://www.w3.org/2000/svg">
<path d="M4.54189 0C2.54346 0 0.908378 1.65 0.908378 3.66667C0.908378 4.68692 1.34167 5.60725 2.01569 6.27367C1.39766 6.695 0.890969 7.26231 0.539677 7.92625C0.188385 8.5902 0.00312334 9.33068 0 10.0833V14.0085C0 14.7635 0.425075 15.4541 1.09906 15.7941L1.81676 16.1562V20C1.81676 21.1046 2.71219 22 3.81676 22H5.26702C6.37159 22 7.26702 21.1046 7.26702 20V16.1562L7.98472 15.7941C8.6587 15.4541 9.08378 14.7635 9.08378 14.0085V10.0833C9.08065 9.33068 8.89539 8.5902 8.5441 7.92625C8.19281 7.26231 7.68612 6.695 7.06809 6.27367C7.7421 5.60725 8.1754 4.68783 8.1754 3.66667C8.1754 1.65 6.54032 0 4.54189 0ZM16.3508 0C14.3524 0 12.7173 1.65 12.7173 3.66667C12.7173 4.72267 13.1924 5.66133 13.91 6.3305C13.0534 6.97757 12.4744 7.93053 12.2913 8.99433V9.02367L10.9287 16.3286L-nan -nanL10.9287 16.3286C10.8116 16.8897 11.2399 17.4167 11.8131 17.4167H13.6257V20C13.6257 21.1046 14.5211 22 15.6257 22H17.0759C18.1805 22 19.0759 21.1046 19.0759 20V17.4167H20.8876C21.4613 17.4167 21.89 16.8893 21.7729 16.3277L-nan -nanL21.7729 16.3277L20.4103 9.02367V8.99525C20.2275 7.93111 19.6484 6.97779 18.7916 6.3305C19.5092 5.66133 19.9843 4.72267 19.9843 3.66667C19.9843 1.65 18.3492 0 16.3508 0ZM4.54189 1.83333C5.55655 1.83333 6.35864 2.64275 6.35864 3.66667C6.35864 4.69058 5.55655 5.5 4.54189 5.5C3.52723 5.5 2.72513 4.69058 2.72513 3.66667C2.72513 2.64275 3.52723 1.83333 4.54189 1.83333ZM16.3508 1.83333C17.3655 1.83333 18.1676 2.64275 18.1676 3.66667C18.1676 4.69058 17.3655 5.5 16.3508 5.5C15.3361 5.5 14.534 4.69058 14.534 3.66667C14.534 2.64275 15.3361 1.83333 16.3508 1.83333ZM4.54189 7.33333C5.26464 7.33333 5.95779 7.62306 6.46885 8.13879C6.97991 8.65451 7.26702 9.35399 7.26702 10.0833V14.0938L5.45027 15.0104V20.1667H3.63351V15.0104L1.81676 14.0938V10.0833C1.81676 9.35399 2.10387 8.65451 2.61493 8.13879C3.12599 7.62306 3.81914 7.33333 4.54189 7.33333ZM16.3508 7.33333C17.4681 7.33333 18.4192 8.08133 18.6217 9.30967V9.33808H18.6499L19.8144 15.5833H17.2592V20.1667H15.4424V15.5833H12.8872L14.0517 9.33808H14.0799V9.31058C14.2824 8.08133 15.2335 7.33333 16.3508 7.33333Z" fill="#747995"/>
</svg>
