<?xml version="1.0" encoding="utf-8"?><!-- Uploaded to: SVG Repo, www.svgrepo.com, Generator: SVG Repo Mixer Tools -->
<svg width="800px" height="800px" viewBox="0 0 400 400" fill="none" xmlns="http://www.w3.org/2000/svg">
<path d="M41 280C46.1372 271.746 49.6326 262.651 55.0169 254.565C62.361 243.535 68.375 233.297 77.7939 223.867C96.8047 204.834 128.166 194.675 146.124 220.359C153.625 231.088 153.207 245.731 163.207 255.442C171.367 263.367 193.541 270.296 204.38 257.635C221.025 238.193 241.757 120.007 282.785 140.546C321.371 159.862 305.235 237.417 335.785 268.004C342.618 274.844 348.914 275.897 359 277.651" stroke="#000000" stroke-opacity="0.9" stroke-width="16" stroke-linecap="round" stroke-linejoin="round"/>
<path d="M246.819 140.446C247.788 141.724 250.523 141.866 251.473 142.953C251.588 143.083 244.857 153.871 244.218 154.105C243.188 154.482 239.483 153.195 238.742 152.601C236.681 150.951 238.26 149.628 239.563 147.84C241.16 145.648 242.357 143.252 243.944 141.073" stroke="#000000" stroke-opacity="0.9" stroke-width="12" stroke-linecap="round" stroke-linejoin="round"/>
<path d="M234.85 157.901C236.324 158.999 240.092 158.072 241.175 159.974C241.376 160.327 235.755 173.559 235.694 173.598C235.321 173.834 229.841 172.021 229.651 171.821C229.126 171.268 228.36 169.763 228.668 169.008C229.624 166.654 230.96 164.451 231.899 162.047C232.548 160.389 233.18 159.033 234.148 157.604" stroke="#000000" stroke-opacity="0.9" stroke-width="12" stroke-linecap="round" stroke-linejoin="round"/>
<path d="M262.679 128.989C263.315 129.838 267.18 132.423 267.269 133.322C267.321 133.853 266.77 134.078 266.434 134.306C264.341 135.725 259.36 140.85 256.629 140.995C254.095 141.131 250.243 134.566 252.613 133.028C254.94 131.517 257.62 130.45 259.778 128.734" stroke="#000000" stroke-opacity="0.9" stroke-width="12" stroke-linecap="round" stroke-linejoin="round"/>
<path d="M238.988 134.222C243.647 140.362 230.874 138.672 237.316 133.583" stroke="#000000" stroke-opacity="0.9" stroke-width="12" stroke-linecap="round" stroke-linejoin="round"/>
<path d="M231.053 144.213C231.79 143.707 232.863 143.097 233.826 143.621C234.103 143.772 234.332 144.943 234.316 145.101C233.815 150.097 225.038 145.428 230.238 142.734" stroke="#000000" stroke-opacity="0.9" stroke-width="12" stroke-linecap="round" stroke-linejoin="round"/>
<path d="M224.452 154.336C224.892 153.526 225.661 152.455 226.813 152.606C229.496 152.957 222.878 159.714 222.878 154.48C222.878 153.215 223.246 152.438 224.452 151.885" stroke="#000000" stroke-opacity="0.9" stroke-width="12" stroke-linecap="round" stroke-linejoin="round"/>
<path d="M224.022 162.87C220.448 165.273 218.967 164.965 219.581 161.946C220.195 158.928 221.675 159.236 224.022 162.87Z" stroke="#000000" stroke-opacity="0.9" stroke-width="12" stroke-linecap="round" stroke-linejoin="round"/>
<path d="M257.581 121.446C264.997 127.31 247.743 126.72 256.113 121" stroke="#000000" stroke-opacity="0.9" stroke-width="12" stroke-linecap="round" stroke-linejoin="round"/>
<path d="M249.363 126.719C253.854 131.483 240.857 133.874 247.886 127.085" stroke="#000000" stroke-opacity="0.9" stroke-width="12" stroke-linecap="round" stroke-linejoin="round"/>
<path opacity="0.503384" d="M277.784 139.302C277.199 152.783 276.886 166.449 276.302 179.998C275.448 199.792 274.699 219.607 273.633 239.391C273.141 248.511 272.15 257.469 272.15 266.613C272.15 268.124 271.825 278.541 272.447 276.237" stroke="#000000" stroke-opacity="0.9" stroke-width="4" stroke-linecap="round" stroke-linejoin="round"/>
<path opacity="0.503384" d="M107.346 211.367C107.177 233.875 106.202 256.596 106.202 278.856" stroke="#000000" stroke-opacity="0.9" stroke-width="4" stroke-linecap="round" stroke-linejoin="round"/>
<path opacity="0.503384" d="M257.194 149.597C256.522 191.519 251.475 233.393 251.475 275.425" stroke="#000000" stroke-opacity="0.9" stroke-width="4" stroke-linecap="round" stroke-linejoin="round"/>
<path opacity="0.503384" d="M234.317 204.503C231.824 227.416 234.334 253.195 233.339 275.424" stroke="#000000" stroke-opacity="0.9" stroke-width="4" stroke-linecap="round" stroke-linejoin="round"/>
<path opacity="0.503384" d="M216.014 249.115C215.837 257.27 214.871 268.434 214.871 276.568" stroke="#000000" stroke-opacity="0.9" stroke-width="4" stroke-linecap="round" stroke-linejoin="round"/>
<path opacity="0.503384" d="M294.943 159.892C293.638 167.28 293.926 174.779 293.926 182.262C293.926 202.783 292.655 223.258 292.655 243.777C292.655 250.513 292.655 266.43 292.655 273.137" stroke="#000000" stroke-opacity="0.9" stroke-width="4" stroke-linecap="round" stroke-linejoin="round"/>
<path opacity="0.503384" d="M309.078 233.101C308.615 247.347 310.195 261.926 309.078 274.28" stroke="#000000" stroke-opacity="0.9" stroke-width="4" stroke-linecap="round" stroke-linejoin="round"/>
<path opacity="0.503384" d="M196.568 270.849C196.193 273.517 195.79 276.2 195.424 278.856" stroke="#000000" stroke-opacity="0.9" stroke-width="4" stroke-linecap="round" stroke-linejoin="round"/>
<path opacity="0.503384" d="M178.443 271.993C178.442 273.789 178.092 279.145 178.092 277.349" stroke="#000000" stroke-opacity="0.9" stroke-width="4" stroke-linecap="round" stroke-linejoin="round"/>
<path opacity="0.503384" d="M161.204 261.698C160.925 267.023 161.028 272.374 161.028 277.712" stroke="#000000" stroke-opacity="0.9" stroke-width="4" stroke-linecap="round" stroke-linejoin="round"/>
<path opacity="0.503384" d="M140.605 218.23C139.993 237.291 142.806 256.602 142.806 275.425" stroke="#000000" stroke-opacity="0.9" stroke-width="4" stroke-linecap="round" stroke-linejoin="round"/>
<path opacity="0.503384" d="M124.119 212.511C122.593 227.152 124.1 272.299 125.527 277.712" stroke="#000000" stroke-opacity="0.9" stroke-width="4" stroke-linecap="round" stroke-linejoin="round"/>
<path opacity="0.503384" d="M92.4748 226.237C91.1002 243.373 90.187 260.538 90.187 277.712" stroke="#000000" stroke-opacity="0.9" stroke-width="4" stroke-linecap="round" stroke-linejoin="round"/>
<path opacity="0.503384" d="M75.6725 247.971C75.3567 256.874 76.464 269.593 74.874 276.568" stroke="#000000" stroke-opacity="0.9" stroke-width="4" stroke-linecap="round" stroke-linejoin="round"/>
<path opacity="0.503384" d="M60.8718 268.561C59.3939 272.004 60.341 275.401 60.0733 278.856" stroke="#000000" stroke-opacity="0.9" stroke-width="4" stroke-linecap="round" stroke-linejoin="round"/>
<path opacity="0.503384" d="M326.226 269.705C325.958 271.229 325.693 272.755 325.425 274.281" stroke="#000000" stroke-opacity="0.9" stroke-width="4" stroke-linecap="round" stroke-linejoin="round"/>
</svg>