<svg width="20" height="20" viewBox="0 0 20 20" fill="none" xmlns="http://www.w3.org/2000/svg">
<path fill-rule="evenodd" clip-rule="evenodd" d="M9.5 2C5.35786 2 2 5.35786 2 9.5C2 13.6421 5.35786 17 9.5 17C11.5131 17 13.341 16.2069 14.6881 14.916C14.7192 14.8729 14.7542 14.8317 14.793 14.7929C14.8318 14.7541 14.873 14.7191 14.9161 14.688C16.2069 13.3409 17 11.5131 17 9.5C17 5.35786 13.6421 2 9.5 2ZM16.8876 15.4733C18.2086 13.8414 19 11.7631 19 9.5C19 4.25329 14.7467 0 9.5 0C4.25329 0 0 4.25329 0 9.5C0 14.7467 4.25329 19 9.5 19C11.7632 19 13.8415 18.2086 15.4734 16.8875L18.2929 19.7071C18.6834 20.0976 19.3166 20.0976 19.7071 19.7071C20.0976 19.3166 20.0976 18.6834 19.7071 18.2929L16.8876 15.4733Z" fill="#747995"/>
</svg>
