<svg width="18" height="22" viewBox="0 0 18 22" fill="none" xmlns="http://www.w3.org/2000/svg">
<path fill-rule="evenodd" clip-rule="evenodd" d="M8.71396 0.0884304C8.90366 0.061018 9.09632 0.061018 9.28602 0.0884304C9.50465 0.120023 9.70809 0.196879 9.86963 0.257904C9.88442 0.26349 9.89885 0.268942 9.91291 0.274215L15.2747 2.28489C15.3186 2.30135 15.3622 2.31761 15.4054 2.33374C16.0231 2.56439 16.5657 2.76695 16.9835 3.13517C17.349 3.45729 17.6306 3.86358 17.8039 4.31893C18.0019 4.83944 18.0011 5.41855 18.0001 6.07799C18.0001 6.12409 18 6.17058 18 6.21747V10.9999C18 13.8265 16.4627 16.1831 14.8009 17.9143C13.128 19.6571 11.214 20.888 10.2019 21.4785C10.1885 21.4863 10.1749 21.4943 10.1609 21.5025C9.97622 21.611 9.73649 21.7517 9.41935 21.8198C9.1599 21.8754 8.84008 21.8754 8.58063 21.8198C8.26349 21.7517 8.02376 21.611 7.83906 21.5025C7.82509 21.4943 7.81144 21.4863 7.79809 21.4785C6.78599 20.888 4.87195 19.6571 3.19905 17.9143C1.53728 16.1831 -9.82737e-06 13.8265 -9.82737e-06 10.9999V6.21747C-9.82737e-06 6.17058 -7.71806e-05 6.1241 -0.000143938 6.078C-0.00109892 5.41856 -0.00193769 4.83944 0.196131 4.31893C0.369402 3.86358 0.650964 3.45729 1.01648 3.13517C1.4343 2.76694 1.97684 2.56439 2.59463 2.33374C2.63782 2.31761 2.68137 2.30135 2.72527 2.28489L8.08707 0.274216C8.10113 0.268942 8.11557 0.263489 8.13035 0.257904C8.29189 0.196878 8.49533 0.120023 8.71396 0.0884304ZM8.99697 2.07114C8.95613 2.08453 8.90072 2.1051 8.78932 2.14687L3.42752 4.15755C2.60228 4.46701 2.44346 4.54341 2.33882 4.63564C2.21698 4.74301 2.12313 4.87844 2.06537 5.03022C2.01576 5.16059 1.99999 5.33612 1.99999 6.21747V10.9999C1.99999 13.0817 3.13968 14.9643 4.6419 16.5293C6.133 18.0827 7.86997 19.205 8.80591 19.751C8.86311 19.7844 8.90438 19.8084 8.94026 19.8286C8.96841 19.8445 8.98715 19.8545 8.99999 19.861C9.01283 19.8545 9.03157 19.8445 9.05972 19.8286C9.0956 19.8084 9.13687 19.7844 9.19407 19.751C10.13 19.205 11.867 18.0827 13.3581 16.5293C14.8603 14.9643 16 13.0817 16 10.9999V6.21747C16 5.33612 15.9842 5.16059 15.9346 5.03022C15.8769 4.87844 15.783 4.74301 15.6612 4.63564C15.5565 4.54341 15.3977 4.46701 14.5725 4.15755L9.21066 2.14687C9.09926 2.1051 9.04386 2.08454 9.00301 2.07114C9.00196 2.0708 9.00096 2.07047 8.99999 2.07016C8.99902 2.07047 8.99802 2.0708 8.99697 2.07114ZM13.2071 7.29276C13.5976 7.68329 13.5976 8.31645 13.2071 8.70698L8.7071 13.207C8.31657 13.5975 7.68341 13.5975 7.29288 13.207L5.29288 11.207C4.90236 10.8165 4.90236 10.1833 5.29288 9.79276C5.68341 9.40224 6.31657 9.40224 6.7071 9.79276L7.99999 11.0857L11.7929 7.29276C12.1834 6.90224 12.8166 6.90224 13.2071 7.29276Z" fill="#747995"/>
</svg>
