<svg width="18" height="22" viewBox="0 0 18 22" fill="none" xmlns="http://www.w3.org/2000/svg">
<path fill-rule="evenodd" clip-rule="evenodd" d="M11.8385 0H4.16146H4.16141C3.63428 -1.69965e-05 3.17954 -3.16575e-05 2.80497 0.0305713C2.40963 0.0628723 2.01641 0.134188 1.63803 0.326982C1.07354 0.614602 0.614602 1.07354 0.326982 1.63803C0.134188 2.01641 0.0628722 2.40963 0.0305712 2.80497C-3.18799e-05 3.17954 -1.71156e-05 3.63429 0 4.16142V4.16146V17.8385V17.8386C-1.71156e-05 18.3657 -3.18792e-05 18.8205 0.0305712 19.195C0.0628721 19.5904 0.134188 19.9836 0.326982 20.362C0.614603 20.9265 1.07354 21.3854 1.63803 21.673C2.01641 21.8658 2.40963 21.9371 2.80497 21.9694C3.17954 22 3.6343 22 4.16144 22H11.8386C12.3657 22 12.8205 22 13.195 21.9694C13.5904 21.9371 13.9836 21.8658 14.362 21.673C14.9265 21.3854 15.3854 20.9265 15.673 20.362C15.7527 20.2056 15.7863 20.0468 15.8006 19.9755C15.82 19.8794 15.8349 19.7754 15.847 19.6734C15.8713 19.4681 15.8906 19.2158 15.9064 18.9412C15.9381 18.3888 15.9589 17.6912 15.9726 16.9829C16 15.5648 16 14.0621 16 13.5013V13.5C16 13.4854 15.9997 13.4708 15.9991 13.4564L17.359 12.9333C17.7452 12.7848 18 12.4138 18 12C18 11.5862 17.7452 11.2152 17.359 11.0667L15.9998 10.5439C15.9991 9.66279 15.995 7.93952 15.9727 6.27301C15.959 5.25373 15.9384 4.24808 15.9072 3.46697C15.8917 3.07792 15.8731 2.73341 15.8503 2.46662C15.8391 2.33452 15.8256 2.20766 15.8087 2.09791L15.8076 2.09072C15.7974 2.02365 15.7666 1.82173 15.673 1.63803C15.3854 1.07354 14.9265 0.614602 14.362 0.326982C13.9836 0.134188 13.5904 0.0628723 13.195 0.0305713C12.8205 -3.16579e-05 12.3657 -1.69965e-05 11.8386 0H11.8385ZM13.9938 8.59808C13.9898 7.88238 13.9834 7.0845 13.9728 6.2998C13.9593 5.28558 13.939 4.30099 13.9088 3.54677C13.8937 3.16814 13.8765 2.85871 13.8576 2.63673C13.8511 2.56068 13.8449 2.50116 13.8394 2.4565C13.7441 2.30928 13.6113 2.18917 13.454 2.109C13.4045 2.0838 13.3038 2.04612 13.0322 2.02393C12.783 2.00357 12.4651 2.00052 12 2.00007L12 2.43188C12 2.68427 12.0001 2.93007 11.9831 3.13823C11.9644 3.36682 11.9203 3.63656 11.782 3.90798C11.5903 4.28431 11.2843 4.59027 10.908 4.78201C10.6366 4.92031 10.3668 4.96438 10.1382 4.98306C9.93007 5.00006 9.68428 5.00003 9.4319 5L6.6 5L6.5681 5C6.31572 5.00003 6.06993 5.00006 5.86177 4.98306C5.63318 4.96438 5.36344 4.92031 5.09202 4.78201C4.7157 4.59027 4.40974 4.28431 4.21799 3.90798C4.07969 3.63656 4.03562 3.36682 4.01695 3.13823C3.99994 2.93007 3.99997 2.68428 4 2.4319L4 2.4V2.00007C3.5349 2.00052 3.21698 2.00357 2.96784 2.02393C2.69617 2.04612 2.59546 2.0838 2.54601 2.109C2.35785 2.20487 2.20487 2.35785 2.109 2.54601C2.0838 2.59546 2.04612 2.69617 2.02393 2.96784C2.00078 3.25118 2 3.62345 2 4.2V17.8C2 18.3766 2.00078 18.7488 2.02393 19.0322C2.04612 19.3038 2.0838 19.4046 2.109 19.454C2.20487 19.6422 2.35785 19.7951 2.54601 19.891C2.59546 19.9162 2.69617 19.9539 2.96784 19.9761C3.25117 19.9992 3.62345 20 4.2 20H11.8C12.3766 20 12.7488 19.9992 13.0322 19.9761C13.3038 19.9539 13.4045 19.9162 13.454 19.891C13.6166 19.8081 13.753 19.6826 13.8489 19.5285C13.8525 19.5051 13.8565 19.4752 13.8609 19.4381C13.8783 19.2913 13.8948 19.085 13.9097 18.8264C13.9392 18.3122 13.9594 17.6445 13.9729 16.9443C13.983 16.4255 13.9893 15.8945 13.9933 15.4032L13.4333 16.859C13.2848 17.2452 12.9138 17.5 12.5 17.5C12.0862 17.5 11.7152 17.2452 11.5667 16.859L10.6996 14.6045C10.5402 14.1901 10.5163 14.1484 10.4968 14.121C10.4644 14.0754 10.4246 14.0356 10.379 14.0032C10.3516 13.9837 10.3099 13.9598 9.89545 13.8004L7.64102 12.9333C7.25483 12.7848 7 12.4138 7 12C7 11.5862 7.25483 11.2152 7.64102 11.0667L9.89545 10.1996C10.3099 10.0402 10.3516 10.0163 10.379 9.99679C10.4246 9.9644 10.4644 9.9246 10.4968 9.87905C10.5163 9.85165 10.5402 9.80988 10.6996 9.39545L11.5667 7.14102C11.7152 6.75483 12.0862 6.5 12.5 6.5C12.9138 6.5 13.2848 6.75483 13.4333 7.14102L13.9938 8.59808ZM6 2.4V2H10V2.4C10 2.69653 9.99922 2.85878 9.9897 2.97537L9.98855 2.98855L9.97537 2.9897C9.85878 2.99922 9.69653 3 9.4 3H6.6C6.30347 3 6.14122 2.99922 6.02464 2.9897L6.01145 2.98855L6.0103 2.97537C6.00078 2.85878 6 2.69653 6 2.4ZM13.825 2.36462C13.8251 2.36417 13.8266 2.36996 13.8289 2.38337C13.826 2.37178 13.8249 2.36508 13.825 2.36462ZM12.3839 10.2871C12.4251 10.1244 12.463 9.97469 12.5 9.87905C12.5353 9.97032 12.5714 10.1006 12.6105 10.2414C12.6835 10.5044 12.7666 10.804 12.8733 10.9541L12.8824 10.967C13.0427 11.1924 13.2385 11.4678 13.462 11.6267C13.6141 11.7349 13.9052 11.8188 14.1608 11.8925C14.2922 11.9304 14.4143 11.9656 14.5032 12C14.4143 12.0344 14.2922 12.0696 14.1608 12.1075C13.9052 12.1812 13.6141 12.2651 13.462 12.3733C13.2342 12.5352 13.0352 12.7342 12.8733 12.962C12.7649 13.1143 12.6809 13.4046 12.6072 13.6595C12.5694 13.7901 12.5343 13.9113 12.5 14C12.4657 13.9113 12.4306 13.7901 12.3928 13.6595C12.3191 13.4046 12.2351 13.1143 12.1267 12.962C11.9648 12.7342 11.7658 12.5352 11.538 12.3733C11.3859 12.2651 11.0948 12.1812 10.8392 12.1075C10.7078 12.0696 10.5857 12.0344 10.4968 12C10.5857 11.9656 10.7078 11.9304 10.8392 11.8925C11.0948 11.8188 11.3859 11.7349 11.538 11.6267C11.7658 11.4648 11.9648 11.2658 12.1267 11.038C12.2307 10.8918 12.3123 10.5698 12.3839 10.2871Z" fill="#747995"/>
</svg>
