<svg width="34" height="34" viewBox="0 0 34 34" fill="none" xmlns="http://www.w3.org/2000/svg">
<g clip-path="url(#clip0_871_736)">
<path d="M21.4046 9.42787L6.31665 13.5937C5.72205 13.759 5.19291 14.1037 4.80138 14.5808C4.40985 15.0578 4.17498 15.6441 4.12879 16.2595C4.0826 16.8749 4.22734 17.4896 4.54327 18.0198C4.85921 18.5499 5.33097 18.9698 5.89422 19.222L11.271 21.6068C11.3983 21.6668 11.5125 21.7516 11.6067 21.8563C11.7009 21.9609 11.7733 22.0832 11.8197 22.2162L13.6294 27.8128C13.7839 28.2882 14.0548 28.7175 14.4174 29.0616C14.78 29.4057 15.2229 29.6538 15.7058 29.7832C16.1886 29.9126 16.6962 29.9193 17.1823 29.8027C17.6685 29.6861 18.1177 29.4498 18.4893 29.1154C18.8342 28.7986 19.1038 28.4087 19.2784 27.9743L24.9986 13.4044C25.2004 12.8865 25.2545 12.3226 25.1546 11.7758C25.0547 11.229 24.8048 10.7206 24.4328 10.3075C24.0609 9.89441 23.5814 9.59278 23.048 9.43627C22.5146 9.27976 21.9482 9.27453 21.412 9.42117L21.4046 9.42787ZM23.132 12.6764L17.4119 27.2463C17.3343 27.4349 17.201 27.5953 17.0297 27.7059C16.8584 27.8166 16.6573 27.8722 16.4535 27.8654C16.2497 27.8586 16.0528 27.7896 15.8893 27.6677C15.7258 27.5458 15.6035 27.3769 15.5388 27.1835L13.7216 21.5936C13.6967 21.5196 13.6673 21.4471 13.6339 21.3766L18.7542 16.7663C18.9512 16.5888 19.0698 16.3403 19.0837 16.0754C19.0975 15.8106 19.0056 15.5511 18.8282 15.354C18.6507 15.1569 18.4022 15.0384 18.1374 15.0245C17.8725 15.0106 17.613 15.1025 17.4159 15.28L12.2956 19.8903C12.2289 19.8496 12.1599 19.8129 12.089 19.7803L6.71962 17.3889C6.53407 17.3042 6.37882 17.1649 6.2747 16.9896C6.17057 16.8142 6.12255 16.6112 6.13706 16.4078C6.15157 16.2044 6.22793 16.0103 6.35589 15.8515C6.48386 15.6927 6.65731 15.5768 6.85299 15.5194L21.9409 11.3536C22.1188 11.3064 22.3063 11.3091 22.4827 11.3616C22.6591 11.4141 22.8176 11.5142 22.9408 11.651C23.0639 11.7878 23.1469 11.9559 23.1807 12.1368C23.2144 12.3177 23.1976 12.5045 23.132 12.6764Z" fill="white"/>
</g>
<defs>
<clipPath id="clip0_871_736">
<rect width="24" height="24" fill="white" transform="translate(0.0527344 16.1118) rotate(-42)"/>
</clipPath>
</defs>
</svg>
