<svg width="21" height="22" viewBox="0 0 21 22" fill="none" xmlns="http://www.w3.org/2000/svg">
<path fill-rule="evenodd" clip-rule="evenodd" d="M9.21 21.47C9.73 21.81 10.34 21.99 10.96 21.99V21.98C11.58 21.98 12.19 21.8 12.71 21.46C13.23 21.12 13.64 20.64 13.89 20.07L14.47 18.76C14.6 18.49 14.8 18.26 15.06 18.11C15.32 17.96 15.62 17.9 15.92 17.93L17.35 18.08C17.96 18.15 18.58 18.03 19.14 17.75C19.7 17.47 20.16 17.03 20.47 16.49C20.78 15.95 20.93 15.34 20.9 14.72C20.87 14.1 20.66 13.5 20.29 13L19.45 11.84C19.27 11.6 19.18 11.3 19.18 10.99C19.18 10.69 19.27 10.39 19.45 10.15L20.3 8.99C20.67 8.49 20.88 7.89 20.91 7.27C20.94 6.64 20.79 6.03 20.48 5.49C20.16 4.95 19.71 4.51 19.15 4.23C18.59 3.95 17.97 3.83 17.35 3.9L15.92 4.05C15.62 4.08 15.32 4.02 15.06 3.87C14.8 3.72 14.59 3.49 14.47 3.21L13.88 1.9C13.62 1.33 13.21 0.85 12.69 0.51C11.65 -0.17 10.23 -0.17 9.19 0.51C8.67 0.85 8.26 1.33 8.01 1.9L7.42 3.22C7.3 3.49 7.1 3.72 6.84 3.87C6.58 4.02 6.28 4.08 5.98 4.05L4.55 3.9C3.93 3.83 3.31 3.95 2.75 4.23C2.2 4.52 1.74 4.95 1.43 5.49C1.11 6.03 0.969996 6.65 0.999996 7.27C1.04 7.89 1.25 8.48 1.61 8.99L2.46 10.15C2.64 10.4 2.73 10.69 2.73 10.99C2.73 11.29 2.64 11.58 2.46 11.83L1.61 12.99C1.24 13.5 1.03 14.09 0.999996 14.71C0.969996 15.34 1.12 15.95 1.43 16.49C1.74 17.03 2.2 17.47 2.75 17.75C3.31 18.03 3.93 18.14 4.55 18.08L5.98 17.93C6.29 17.9 6.59 17.96 6.85 18.11C7.11 18.26 7.32 18.5 7.44 18.77L8.02 20.08C8.28 20.65 8.69 21.13 9.21 21.47ZM9.85 19.26L9.27 17.95L9.26 17.94C8.97 17.28 8.46 16.72 7.84 16.36C7.2 16 6.49 15.84 5.76 15.92L4.33 16.07C4.09 16.09 3.86 16.05 3.65 15.94C3.44 15.84 3.27 15.67 3.15 15.47C3.03 15.27 2.98 15.03 2.99 14.8C3 14.57 3.08 14.34 3.22 14.15L4.07 12.99C4.5 12.4 4.73 11.7 4.73 10.97C4.73 10.24 4.5 9.54 4.07 8.95L3.22 7.79C3.08 7.6 3 7.37 2.99 7.14C2.98 6.91 3.03 6.67 3.15 6.47C3.27 6.27 3.44 6.11 3.65 6C3.86 5.9 4.1 5.85 4.33 5.88L5.77 6.03C6.49 6.11 7.21 5.96 7.85 5.59C8.48 5.22 8.97 4.67 9.26 4.01L9.84 2.7C9.94 2.49 10.09 2.31 10.29 2.18C10.68 1.92 11.22 1.93 11.61 2.18C11.81 2.31 11.96 2.49 12.06 2.71L12.65 4.02C12.95 4.69 13.44 5.23 14.07 5.6C14.71 5.96 15.42 6.11 16.15 6.04L17.58 5.89C17.81 5.86 18.05 5.9 18.26 6.01C18.47 6.12 18.64 6.29 18.76 6.49C18.88 6.69 18.93 6.93 18.92 7.16C18.91 7.4 18.83 7.62 18.69 7.81L17.84 8.97C17.41 9.56 17.18 10.25 17.18 10.98C17.18 11.71 17.4 12.41 17.83 13.01L18.68 14.17C18.82 14.36 18.9 14.58 18.91 14.82C18.92 15.05 18.87 15.29 18.75 15.49C18.63 15.69 18.46 15.85 18.25 15.96C18.04 16.07 17.8 16.11 17.57 16.09L16.14 15.94C15.41 15.86 14.69 16.01 14.06 16.38C13.44 16.74 12.95 17.29 12.65 17.95L12.07 19.27C11.97 19.48 11.82 19.66 11.62 19.79C11.23 20.05 10.69 20.05 10.3 19.79C10.1 19.66 9.95 19.47 9.85 19.26ZM9 11C9 9.89543 9.89543 9 11 9C12.1046 9 13 9.89543 13 11C13 12.1046 12.1046 13 11 13C9.89543 13 9 12.1046 9 11ZM11 7C8.79086 7 7 8.79086 7 11C7 13.2091 8.79086 15 11 15C13.2091 15 15 13.2091 15 11C15 8.79086 13.2091 7 11 7Z" fill="#747995"/>
</svg>
