<svg width="16" height="23" viewBox="0 0 16 23" fill="none" xmlns="http://www.w3.org/2000/svg">
<path fill-rule="evenodd" clip-rule="evenodd" d="M6.97694 0C4.98845 0 3.32449 1.3788 2.89036 3.23391C2.2897 3.36971 1.72383 3.65289 1.27266 4.10406C0.643082 4.73364 0.306882 5.62096 0.350553 6.68252L0.350602 6.68368C0.363608 6.98933 0.403 7.27002 0.464611 7.53016L0.528623 7.80043L2.85056 20.2639L2.85074 20.2648C3.08613 21.5411 4.20509 22.4688 5.50327 22.4557H6.77165C6.84014 22.4671 6.91121 22.4698 6.98359 22.4629C7.0024 22.4611 7.02101 22.4587 7.03938 22.4557H9.19445C9.21282 22.4587 9.23143 22.4611 9.25024 22.4629C9.32262 22.4698 9.39369 22.4671 9.46218 22.4557H10.7186C12.0298 22.4557 13.1496 21.5066 13.3688 20.2145L15.4689 7.75025C15.4775 7.69943 15.4812 7.64836 15.4801 7.59767L15.5271 7.4606C15.5424 7.36402 15.5676 7.20529 15.5676 7.0307C15.5676 6.88925 15.5564 6.75058 15.5349 6.6155L15.5271 6.57031L15.5185 6.52344C15.3771 5.80408 14.9409 5.19407 14.3438 4.81669C14.3954 4.60199 14.4222 4.37877 14.4222 4.15079C14.4222 2.59169 13.1559 1.32542 11.5968 1.32542C11.1269 1.32542 10.6914 1.44162 10.3097 1.64073C9.54233 0.643876 8.33781 0 6.97694 0ZM13.1199 6.06205C13.4057 6.11587 13.6458 6.2883 13.789 6.52344H1.98316C1.97756 5.91367 2.17462 5.5162 2.42971 5.26111C2.70899 4.98183 3.13036 4.80192 3.64551 4.77709L4.37275 4.74204L4.42238 4.01565C4.51321 2.68634 5.62033 1.63632 6.97694 1.63632C8.03073 1.63632 8.93297 2.26729 9.33116 3.17566L9.84922 4.3575L10.6972 3.38483C10.9285 3.11954 11.2453 2.96173 11.5968 2.96173C12.2522 2.96173 12.7859 3.4954 12.7859 4.15079C12.7859 4.39819 12.7138 4.62089 12.5924 4.8015L11.8993 5.8322L13.1199 6.06205ZM10.7186 20.8194H10.2286L11.4081 8.43247H13.6946L11.7555 19.9412C11.6691 20.4488 11.229 20.8194 10.7186 20.8194ZM8.58488 20.8194L9.76436 8.43247H6.46947L7.64895 20.8194H8.58488ZM4.82576 8.43247H2.31084L4.45985 19.9677C4.55179 20.4672 4.98975 20.8255 5.48887 20.8194L5.49879 20.8194H6.00523L4.82576 8.43247Z" fill="#747995"/>
</svg>
