<svg width="22" height="20" viewBox="0 0 22 20" fill="none" xmlns="http://www.w3.org/2000/svg">
<path fill-rule="evenodd" clip-rule="evenodd" d="M5.7587 4.31292e-07H16.2413C17.0463 -1.23241e-05 17.7106 -2.28137e-05 18.2518 0.0441945C18.8139 0.0901197 19.3306 0.188684 19.816 0.435975C20.5686 0.819468 21.1805 1.43139 21.564 2.18404C21.8113 2.66937 21.9099 3.18608 21.9558 3.74817C22 4.28936 22 4.95372 22 5.75868V10.2413C22 11.0463 22 11.7106 21.9558 12.2518C21.9099 12.8139 21.8113 13.3306 21.564 13.816C21.1805 14.5686 20.5686 15.1805 19.816 15.564C19.3306 15.8113 18.8139 15.9099 18.2518 15.9558C17.7106 16 17.0463 16 16.2413 16H13.8508L16.6247 18.2191C17.056 18.5641 17.1259 19.1934 16.7809 19.6247C16.4359 20.056 15.8066 20.1259 15.3753 19.7809L11 16.2806L6.6247 19.7809C6.19343 20.1259 5.56414 20.056 5.21913 19.6247C4.87412 19.1934 4.94404 18.5641 5.37531 18.2191L8.14922 16H5.75873C4.95374 16 4.28938 16 3.74817 15.9558C3.18608 15.9099 2.66937 15.8113 2.18404 15.564C1.43139 15.1805 0.819468 14.5686 0.435975 13.816C0.188684 13.3306 0.0901197 12.8139 0.0441945 12.2518C-2.28137e-05 11.7106 -1.23241e-05 11.0463 4.31292e-07 10.2413V5.7587C-1.23241e-05 4.95373 -2.28137e-05 4.28937 0.0441945 3.74818C0.0901197 3.18608 0.188684 2.66937 0.435975 2.18404C0.819468 1.43139 1.43139 0.819468 2.18404 0.435975C2.66937 0.188684 3.18608 0.0901197 3.74817 0.0441945C4.28937 -2.28137e-05 4.95373 -1.23241e-05 5.7587 4.31292e-07ZM16.2 14C17.0566 14 17.6389 13.9992 18.089 13.9624C18.5274 13.9266 18.7516 13.8617 18.908 13.782C19.2843 13.5903 19.5903 13.2843 19.782 12.908C19.8617 12.7516 19.9266 12.5274 19.9624 12.089C19.9992 11.6389 20 11.0566 20 10.2V5.8C20 4.94342 19.9992 4.36113 19.9624 3.91104C19.9266 3.47262 19.8617 3.24842 19.782 3.09202C19.5903 2.7157 19.2843 2.40973 18.908 2.21799C18.7516 2.1383 18.5274 2.07337 18.089 2.03755C17.6389 2.00078 17.0566 2 16.2 2H5.8C4.94342 2 4.36113 2.00078 3.91104 2.03755C3.47262 2.07337 3.24842 2.1383 3.09202 2.21799C2.7157 2.40973 2.40973 2.7157 2.21799 3.09202C2.1383 3.24842 2.07337 3.47262 2.03755 3.91104C2.00078 4.36113 2 4.94342 2 5.8V10.2C2 11.0566 2.00078 11.6389 2.03755 12.089C2.07337 12.5274 2.1383 12.7516 2.21799 12.908C2.40973 13.2843 2.7157 13.5903 3.09202 13.782C3.24842 13.8617 3.47262 13.9266 3.91104 13.9624C4.36113 13.9992 4.94342 14 5.8 14H16.2Z" fill="#747995"/>
</svg>
