<svg width="22" height="20" viewBox="0 0 22 20" fill="none" xmlns="http://www.w3.org/2000/svg">
<path fill-rule="evenodd" clip-rule="evenodd" d="M13.1615 8.6011e-07H16.8385C17.3657 -1.70213e-05 17.8205 -3.25181e-05 18.195 0.0305712C18.5904 0.0628722 18.9836 0.134188 19.362 0.326982C19.9265 0.614603 20.3854 1.07355 20.673 1.63803C20.8658 2.01641 20.9371 2.40963 20.9694 2.80497C21 3.17954 21 3.6343 21 4.16144V18C21.5523 18 22 18.4477 22 19C22 19.5523 21.5523 20 21 20H1C0.447715 20 0 19.5523 0 19C0 18.4477 0.447715 18 1 18V12.1615C0.999981 11.6343 0.999966 11.1795 1.03057 10.805C1.06287 10.4096 1.13419 10.0164 1.32698 9.63803C1.6146 9.07354 2.07354 8.6146 2.63803 8.32698C3.01641 8.13419 3.40963 8.06287 3.80497 8.03057C4.17954 7.99997 4.63431 7.99998 5.16146 8L9 8L9 4.16146C8.99998 3.63431 8.99997 3.17955 9.03057 2.80497C9.06287 2.40963 9.13419 2.01641 9.32698 1.63803C9.6146 1.07354 10.0735 0.614602 10.638 0.326982C11.0164 0.134188 11.4096 0.0628723 11.805 0.0305712C12.1795 -3.25181e-05 12.6343 -1.70213e-05 13.1615 8.6011e-07ZM9 10H5.2C4.62345 10 4.25117 10.0008 3.96784 10.0239C3.69617 10.0461 3.59545 10.0838 3.54601 10.109C3.35785 10.2049 3.20487 10.3579 3.10899 10.546C3.0838 10.5955 3.04612 10.6962 3.02393 10.9678C3.00078 11.2512 3 11.6234 3 12.2V18H9V10ZM11 18V4.2C11 3.62345 11.0008 3.25117 11.0239 2.96784C11.0461 2.69617 11.0838 2.59546 11.109 2.54601C11.2049 2.35785 11.3578 2.20487 11.546 2.109C11.5955 2.0838 11.6962 2.04612 11.9678 2.02393C12.2512 2.00078 12.6234 2 13.2 2H16.8C17.3766 2 17.7488 2.00078 18.0322 2.02393C18.3038 2.04612 18.4045 2.0838 18.454 2.109C18.6422 2.20487 18.7951 2.35785 18.891 2.54601C18.9162 2.59546 18.9539 2.69617 18.9761 2.96784C18.9992 3.25118 19 3.62345 19 4.2V18H11ZM12.5 5C12.5 4.44772 12.9477 4 13.5 4H16.5C17.0523 4 17.5 4.44772 17.5 5C17.5 5.55229 17.0523 6 16.5 6H13.5C12.9477 6 12.5 5.55229 12.5 5ZM12.5 9C12.5 8.44772 12.9477 8 13.5 8H16.5C17.0523 8 17.5 8.44772 17.5 9C17.5 9.55229 17.0523 10 16.5 10H13.5C12.9477 10 12.5 9.55229 12.5 9ZM12.5 13C12.5 12.4477 12.9477 12 13.5 12H16.5C17.0523 12 17.5 12.4477 17.5 13C17.5 13.5523 17.0523 14 16.5 14H13.5C12.9477 14 12.5 13.5523 12.5 13Z" fill="#747995"/>
</svg>
