<svg width="22" height="16" viewBox="0 0 22 16" fill="none" xmlns="http://www.w3.org/2000/svg">
<path d="M2.35714 0C1.06464 0 0 1.084 0 2.4V13.6C0 14.916 1.06464 16 2.35714 16H19.6429C20.9354 16 22 14.916 22 13.6V2.4C22 1.084 20.9354 0 19.6429 0H2.35714ZM2.35714 1.6H19.6429C20.0876 1.6 20.4286 1.9472 20.4286 2.4V13.6C20.4286 14.0528 20.0876 14.4 19.6429 14.4H2.35714C1.91243 14.4 1.57143 14.0528 1.57143 13.6V2.4C1.57143 1.9472 1.91243 1.6 2.35714 1.6ZM13.6761 5.1C12.1629 5.1 11.3685 5.86 11.3685 6.8248C11.3685 8.5688 13.3815 8.3288 13.3815 9.2248C13.3815 9.3784 13.2558 9.7248 12.4245 9.7248C11.5916 9.7248 11.0495 9.4248 11.0495 9.4248L10.8036 10.5752C10.8036 10.5752 11.319 10.9 12.3506 10.9C13.3815 10.9 14.8304 10.0936 14.8304 8.9248C14.8304 7.5184 12.8166 7.4248 12.8166 6.8C12.8166 6.4816 13.0837 6.2248 13.7987 6.2248C14.2654 6.2248 14.7809 6.6 14.7809 6.6L15.0268 5.3752C15.0268 5.3752 14.3424 5.1 13.6761 5.1ZM7.21914 5.2L5.89286 9.1504C5.89286 9.1504 5.82529 8.8096 5.79464 8.6C5.04586 6.888 3.83036 6.2496 3.83036 6.2496L4.98457 10.7248H6.556L8.76543 5.2H7.21914ZM9.33036 5.2L8.47079 10.7248H9.91964L10.7792 5.2H9.33036ZM17.1388 5.2L14.7816 10.7248H16.2054L16.5 9.9504H18.3174L18.4643 10.7248H19.7654L18.6607 5.2H17.1388ZM2.23379 5.2248C2.23379 5.2248 5.06079 6.1064 5.72079 8.2752L5.22971 5.7752C5.22971 5.7752 5.01521 5.2248 4.444 5.2248H2.23379ZM17.6786 6.8L18.0958 8.8752H16.9172L17.6786 6.8Z" fill="#747995"/>
</svg>
