<svg width="22" height="22" viewBox="0 0 22 22" fill="none" xmlns="http://www.w3.org/2000/svg">
<path d="M18.794 3.20106C17.7804 2.18238 16.5732 1.3747 15.2426 0.825119C13.9121 0.275542 12.4849 -0.00492811 11.0442 6.55264e-05C5.00804 6.55264e-05 0.0884424 4.89505 0.0884424 10.901C0.0884424 12.7557 0.560531 14.5594 1.44538 16.1644C1.50978 16.2812 1.52793 16.4184 1.4927 16.5471L0.2285 21.1653C0.12691 21.5364 0.465025 21.8784 0.837273 21.781L5.61289 20.532C5.73569 20.4999 5.86588 20.5161 5.97854 20.5746C7.53729 21.3838 9.27535 21.813 11.0442 21.813C17.0804 21.813 22 16.918 22 10.912C22 7.99704 20.8613 5.25805 18.794 3.20106ZM11.0442 19.965C9.40804 19.965 7.80502 19.525 6.401 18.7L6.24934 18.6095C6.1342 18.5407 5.99627 18.5211 5.86654 18.555L2.95524 19.3164C2.80629 19.3553 2.67102 19.2184 2.71177 19.07L3.47836 16.2762C3.5161 16.1387 3.49331 15.9916 3.41571 15.8719L3.31658 15.719C2.40756 14.2747 1.92488 12.6052 1.92362 10.901C1.92362 5.90705 6.01407 1.83706 11.0332 1.83706C13.4653 1.83706 15.7538 2.78306 17.4673 4.49905C18.3158 5.33941 18.9882 6.33897 19.4456 7.43981C19.9029 8.54065 20.1361 9.72086 20.1317 10.912C20.1538 15.906 16.0633 19.965 11.0442 19.965ZM16.0412 13.189C15.7648 13.057 14.4161 12.397 14.1729 12.298C13.9186 12.21 13.7417 12.166 13.5538 12.43C13.3658 12.705 12.8462 13.321 12.6915 13.497C12.5367 13.684 12.3709 13.706 12.0945 13.563C11.8181 13.431 10.9337 13.134 9.89447 12.21C9.07638 11.484 8.53467 10.593 8.36884 10.318C8.21407 10.043 8.34673 9.90003 8.49045 9.75704C8.61206 9.63604 8.76683 9.43804 8.8995 9.28404C9.03216 9.13004 9.08744 9.00904 9.17588 8.83304C9.26432 8.64604 9.2201 8.49204 9.15377 8.36004C9.08744 8.22804 8.53467 6.88605 8.31357 6.33605C8.09246 5.80805 7.8603 5.87405 7.69447 5.86305H7.16382C6.97588 5.86305 6.68844 5.92905 6.43417 6.20405C6.19095 6.47905 5.48342 7.13904 5.48342 8.48104C5.48342 9.82304 6.46734 11.121 6.6 11.297C6.73266 11.484 8.53467 14.234 11.2764 15.411C11.9286 15.697 12.4372 15.862 12.8352 15.983C13.4874 16.192 14.0844 16.159 14.5598 16.093C15.0905 16.016 16.1849 15.433 16.406 14.795C16.6382 14.157 16.6382 13.618 16.5608 13.497C16.4834 13.376 16.3176 13.321 16.0412 13.189Z" fill="#747995"/>
</svg>
