<svg width="22" height="16" viewBox="0 0 22 16" fill="none" xmlns="http://www.w3.org/2000/svg">
<path fill-rule="evenodd" clip-rule="evenodd" d="M11 1.88235C7.36088 1.88235 4.04847 3.28622 1.56114 5.58873C1.18178 5.93991 0.592428 5.91392 0.244792 5.5307C-0.102844 5.14747 -0.077123 4.55211 0.302242 4.20094C3.1197 1.59282 6.87678 0 11 0C15.1232 0 18.8803 1.59282 21.6978 4.20094C22.0771 4.55211 22.1028 5.14747 21.7552 5.5307C21.4076 5.91392 20.8182 5.93991 20.4389 5.58873C17.9515 3.28622 14.6391 1.88235 11 1.88235ZM11.0001 6.58824C8.63981 6.58824 6.48652 7.47361 4.8444 8.93491C4.45829 9.27851 3.86955 9.24085 3.52942 8.85081C3.1893 8.46076 3.22657 7.86603 3.61268 7.52244C5.58201 5.76997 8.16917 4.70588 11.0001 4.70588C13.831 4.70588 16.4182 5.76997 18.3875 7.52244C18.7736 7.86603 18.8109 8.46076 18.4707 8.85081C18.1306 9.24085 17.5419 9.27851 17.1558 8.93491C15.5136 7.47361 13.3604 6.58824 11.0001 6.58824ZM11 11.2941C9.89939 11.2941 8.89021 11.6785 8.09318 12.3224C7.69132 12.6471 7.10503 12.5811 6.78366 12.1752C6.46228 11.7692 6.52753 11.177 6.92939 10.8523C8.04484 9.95121 9.46133 9.41177 11 9.41177C12.5157 9.41177 13.9129 9.93522 15.0206 10.8123C15.4255 11.133 15.4965 11.7246 15.1791 12.1337C14.8616 12.5428 14.276 12.6144 13.871 12.2938C13.0797 11.6672 12.0843 11.2941 11 11.2941ZM10.0684 15.0588C10.0684 14.539 10.4855 14.1176 11.0001 14.1176H11.0094C11.524 14.1176 11.9411 14.539 11.9411 15.0588C11.9411 15.5786 11.524 16 11.0094 16H11.0001C10.4855 16 10.0684 15.5786 10.0684 15.0588Z" fill="#747995"/>
</svg>
