<svg width="22" height="18" viewBox="0 0 22 18" fill="none" xmlns="http://www.w3.org/2000/svg">
<path d="M11 0C11.9405 0 12.9052 0.0247501 13.8402 0.0652501L14.9446 0.11925L16.0017 0.183375L16.9917 0.252L17.8959 0.324C18.8772 0.400812 19.8005 0.829065 20.5035 1.53342C21.2065 2.23777 21.6441 3.17311 21.7393 4.17487L21.7833 4.653L21.8658 5.67675C21.9428 6.73762 22 7.89412 22 9C22 10.1059 21.9428 11.2624 21.8658 12.3233L21.7833 13.347C21.769 13.5113 21.7547 13.6699 21.7393 13.8251C21.644 14.8271 21.2063 15.7625 20.5031 16.4669C19.7999 17.1713 18.8763 17.5994 17.8948 17.676L16.9928 17.7469L16.0028 17.8166L14.9446 17.8807L13.8402 17.9347C12.894 17.9768 11.9471 17.9986 11 18C10.0529 17.9986 9.10598 17.9768 8.1598 17.9347L7.0554 17.8807L5.9983 17.8166L5.0083 17.7469L4.1041 17.676C3.12285 17.5992 2.19951 17.1709 1.49652 16.4666C0.793533 15.7622 0.355932 14.8269 0.2607 13.8251L0.2167 13.347L0.1342 12.3233C0.0500913 11.2175 0.00532842 10.109 0 9C0 7.89412 0.0572 6.73762 0.1342 5.67675L0.2167 4.653C0.231 4.48875 0.2453 4.33012 0.2607 4.17487C0.355895 3.17329 0.793338 2.23809 1.4961 1.53376C2.19886 0.82943 3.12194 0.401065 4.103 0.324L5.0061 0.252L5.9961 0.183375L7.0543 0.11925L8.1587 0.0652501C9.10525 0.0232121 10.0526 0.0014572 11 0ZM11 2.25C10.0925 2.25 9.1586 2.27475 8.25 2.313L7.1742 2.36588L6.1413 2.42775L5.1711 2.49525L4.2823 2.56613C3.81516 2.60002 3.37485 2.80198 3.0394 3.13619C2.70396 3.47041 2.49505 3.9153 2.4497 4.392C2.321 5.75212 2.2 7.44525 2.2 9C2.2 10.5548 2.321 12.2479 2.4497 13.608C2.5432 14.589 3.3044 15.3517 4.2823 15.4339L5.1711 15.5036L6.1413 15.5711L7.1742 15.6341L8.25 15.687C9.1586 15.7253 10.0925 15.75 11 15.75C11.9075 15.75 12.8414 15.7253 13.75 15.687L14.8258 15.6341L15.8587 15.5722L16.8289 15.5047L17.7177 15.4339C18.1848 15.4 18.6252 15.198 18.9606 14.8638C19.296 14.5296 19.505 14.0847 19.5503 13.608C19.679 12.2479 19.8 10.5548 19.8 9C19.8 7.44525 19.679 5.75212 19.5503 4.392C19.505 3.9153 19.296 3.47041 18.9606 3.13619C18.6252 2.80198 18.1848 2.60002 17.7177 2.56613L16.8289 2.49637L15.8587 2.42887L14.8258 2.36588L13.75 2.313C12.8339 2.27269 11.917 2.25168 11 2.25ZM8.8 6.27187C8.79993 6.16192 8.82612 6.05361 8.8763 5.95637C8.92648 5.85913 8.99913 5.7759 9.08793 5.71391C9.17673 5.65193 9.27899 5.61307 9.38582 5.60071C9.49264 5.58835 9.60081 5.60287 9.7009 5.643L9.79 5.688L14.41 8.415C14.502 8.46929 14.5798 8.54549 14.6369 8.63712C14.6939 8.72875 14.7285 8.83311 14.7377 8.94133C14.7469 9.04955 14.7304 9.15844 14.6896 9.25875C14.6488 9.35906 14.585 9.44782 14.5035 9.5175L14.41 9.585L9.79 12.3131C9.6969 12.3683 9.59203 12.3993 9.48452 12.4035C9.37702 12.4077 9.27014 12.385 9.17318 12.3373C9.07623 12.2896 8.99215 12.2184 8.92826 12.1299C8.86436 12.0413 8.8226 11.9382 8.8066 11.8294L8.8 11.7281V6.27187Z" fill="#747995"/>
</svg>
