<svg width="16" height="16" viewBox="0 0 16 16" fill="none" xmlns="http://www.w3.org/2000/svg">
<g clip-path="url(#clip0_1172_15840)">
<path d="M4.91984 0.666656H11.0798C13.4265 0.666656 15.3332 2.57332 15.3332 4.91999V11.08C15.3332 12.208 14.8851 13.2899 14.0874 14.0876C13.2897 14.8852 12.2079 15.3333 11.0798 15.3333H4.91984C2.57317 15.3333 0.666504 13.4267 0.666504 11.08V4.91999C0.666504 3.79194 1.11462 2.71008 1.91228 1.91243C2.70993 1.11477 3.79178 0.666656 4.91984 0.666656ZM4.77317 2.13332C4.073 2.13332 3.4015 2.41147 2.90641 2.90656C2.41131 3.40166 2.13317 4.07315 2.13317 4.77332V11.2267C2.13317 12.686 3.31384 13.8667 4.77317 13.8667H11.2265C11.9267 13.8667 12.5982 13.5885 13.0933 13.0934C13.5884 12.5983 13.8665 11.9268 13.8665 11.2267V4.77332C13.8665 3.31399 12.6858 2.13332 11.2265 2.13332H4.77317ZM11.8498 3.23332C12.093 3.23332 12.3261 3.3299 12.498 3.50181C12.6699 3.67372 12.7665 3.90687 12.7665 4.14999C12.7665 4.3931 12.6699 4.62626 12.498 4.79817C12.3261 4.97008 12.093 5.06666 11.8498 5.06666C11.6067 5.06666 11.3736 4.97008 11.2017 4.79817C11.0297 4.62626 10.9332 4.3931 10.9332 4.14999C10.9332 3.90687 11.0297 3.67372 11.2017 3.50181C11.3736 3.3299 11.6067 3.23332 11.8498 3.23332ZM7.99984 4.33332C8.9723 4.33332 9.90493 4.71963 10.5926 5.40726C11.2802 6.0949 11.6665 7.02753 11.6665 7.99999C11.6665 8.97245 11.2802 9.90508 10.5926 10.5927C9.90493 11.2803 8.9723 11.6667 7.99984 11.6667C7.02738 11.6667 6.09475 11.2803 5.40711 10.5927C4.71948 9.90508 4.33317 8.97245 4.33317 7.99999C4.33317 7.02753 4.71948 6.0949 5.40711 5.40726C6.09475 4.71963 7.02738 4.33332 7.99984 4.33332ZM7.99984 5.79999C7.41636 5.79999 6.85678 6.03177 6.4442 6.44435C6.03162 6.85693 5.79984 7.41651 5.79984 7.99999C5.79984 8.58347 6.03162 9.14304 6.4442 9.55562C6.85678 9.9682 7.41636 10.2 7.99984 10.2C8.58331 10.2 9.14289 9.9682 9.55547 9.55562C9.96805 9.14304 10.1998 8.58347 10.1998 7.99999C10.1998 7.41651 9.96805 6.85693 9.55547 6.44435C9.14289 6.03177 8.58331 5.79999 7.99984 5.79999Z" fill="#747995"/>
</g>
<defs>
<clipPath id="clip0_1172_15840">
<rect width="16" height="16" fill="white"/>
</clipPath>
</defs>
</svg>
