<svg width="16" height="16" viewBox="0 0 16 16" fill="none" xmlns="http://www.w3.org/2000/svg">
<path d="M11.9117 2.96443C11.3305 2.32857 11.0101 1.51197 11.0104 0.666656H8.38282V10.7704C8.36255 11.3171 8.12165 11.835 7.71085 12.215C7.30004 12.5949 6.75139 12.8073 6.18043 12.8074C4.97295 12.8074 3.96955 11.8622 3.96955 10.6889C3.96955 9.2874 5.38112 8.23629 6.8352 8.66814V6.09332C3.90152 5.71851 1.3335 7.90221 1.3335 10.6889C1.3335 13.4022 3.68044 15.3333 6.17193 15.3333C8.842 15.3333 11.0104 13.2555 11.0104 10.6889V5.56369C12.0758 6.2969 13.3551 6.69029 14.6668 6.68814V4.17036C14.6668 4.17036 13.0682 4.24369 11.9117 2.96443Z" fill="#747995"/>
</svg>
