<svg width="16" height="16" viewBox="0 0 16 16" fill="none" xmlns="http://www.w3.org/2000/svg">
<path d="M15.3332 3.41176C14.7933 3.65882 14.2114 3.82118 13.6085 3.89882C14.2255 3.52471 14.7022 2.93176 14.9265 2.21882C14.3446 2.57176 13.6996 2.81882 13.0196 2.96C12.4657 2.35294 11.6875 2 10.8042 2C9.15663 2 7.81054 3.35529 7.81054 5.02824C7.81054 5.26824 7.83859 5.50118 7.88766 5.72C5.39181 5.59294 3.16937 4.38588 1.69009 2.55765C1.43068 3.00235 1.28346 3.52471 1.28346 4.07529C1.28346 5.12706 1.80927 6.05882 2.62253 6.58824C2.12476 6.58824 1.66204 6.44706 1.25541 6.23529V6.25647C1.25541 7.72471 2.29302 8.95294 3.66714 9.22824C3.22597 9.34979 2.76281 9.36671 2.31405 9.27765C2.50447 9.8794 2.8774 10.4059 3.38041 10.7832C3.88342 11.1606 4.49123 11.3697 5.11838 11.3812C4.05528 12.2285 2.7375 12.6866 1.38161 12.68C1.14324 12.68 0.904872 12.6659 0.666504 12.6376C1.99856 13.4988 3.58301 14 5.27963 14C10.8042 14 13.8399 9.38353 13.8399 5.38118C13.8399 5.24706 13.8399 5.12 13.8329 4.98588C14.4218 4.56235 14.9265 4.02588 15.3332 3.41176Z" fill="#747995"/>
</svg>
