<svg xmlns="http://www.w3.org/2000/svg" fill='444' viewBox="0 0 40 38.43">
<path d="M34.0918 35.4334C32.6811 36.1427 31.7247 37.2585 30.1786 37.7048C28.4997 38.1883 26.8499 38.4247 25.1365 38.4247C22.1877 38.4247 18.9785 37.7127 15.3231 36.249L13.3492 35.5397C12.5151 35.3032 11.6942 35.0801 10.8574 34.9313C9.36173 34.6656 7.87671 34.5328 6.44216 34.5328C5.91616 34.5328 5.39812 34.5514 4.90135 34.5886C3.07894 34.7241 1.45843 35.3378 -0.00268555 35.9727C0.834135 35.4653 1.63376 35.0004 2.47324 34.5859C4.84556 33.4091 7.21522 32.7689 9.51581 32.6838C9.66989 32.6785 9.82663 32.6759 9.98071 32.6759C11.0433 32.6759 12.1777 32.8087 13.3546 33.0664C14.5952 33.34 15.8013 33.7385 16.9675 34.121C17.7538 34.3787 18.5641 34.647 19.3823 34.8755C21.1117 35.359 23.1228 35.8797 25.0913 35.9594C25.5456 35.978 26.0131 35.986 26.4833 35.986C30.0697 35.986 31.2333 35.7628 33.7358 35.4307C34.2485 35.3617 34.1582 35.3935 34.0891 35.4307L34.0918 35.4334ZM37.532 2.55035C38.2838 1.86495 39.0861 1.25925 40 0.50213C39.7343 0.600423 39.6227 0.637615 39.5112 0.68012C35.5715 2.25015 31.6291 3.81222 27.6974 5.40616C27.4238 5.51774 27.1368 5.80996 26.9907 6.11015C25.5881 9.00847 24.908 12.1698 24.7672 15.4905C24.5706 20.1103 25.4048 24.5229 26.8393 28.7866C26.919 29.0204 27.1847 29.2648 27.3972 29.318C29.2329 29.7749 31.0739 30.192 32.9149 30.6197C34.4185 30.9677 35.9195 31.3104 37.5214 31.677C37.3381 31.3715 37.2238 31.1723 37.1043 30.9783C35.505 28.3749 34.198 25.5802 33.2629 22.549C32.2322 19.2097 31.7354 15.7827 32.2773 12.2415C32.9016 8.15837 34.8117 5.02893 37.532 2.55035V2.55035ZM20.7133 27.2644C20.8567 27.7692 21.0613 28.0109 21.5209 28.0587C22.0867 28.1172 22.6419 28.3005 23.2051 28.4174C24.0791 28.598 24.9558 28.7707 25.9255 28.9646C23.5558 21.2765 22.8545 13.7106 25.9866 6.0703C24.552 6.6335 23.2158 7.13293 21.8981 7.69878C21.5846 7.83427 21.2552 8.12915 21.0719 8.45856C19.6905 10.9531 19.1964 13.7664 19.1379 16.6992C19.0635 20.3414 19.741 23.8348 20.7133 27.2644V27.2644ZM14.8263 22.6872C15.788 25.2534 17.5174 26.8075 19.8658 27.631C18.1178 21.1596 17.2703 14.837 20.0518 8.46388C19.2973 8.76407 18.6385 9.07754 17.9584 9.28476C16.6567 9.68324 15.7694 10.6688 15.1717 12.029C13.6362 15.5091 13.4821 19.0928 14.829 22.6872H14.8263ZM23.9676 5.91622C24.0712 4.4498 24.3581 2.90633 23.3991 1.59398C22.8996 2.69646 22.6951 4.89344 22.966 6.69194C23.3433 6.41566 23.9463 6.19516 23.9676 5.91622V5.91622ZM12.9906 13.8434C13.0889 13.166 13.599 11.5747 13.9948 9.77091C14.04 9.56901 14.0718 9.3618 14.0957 9.15458C14.2737 7.5633 14.3694 5.96138 14.1117 4.72874C13.7902 3.19058 12.4885 2.15186 13.6069 0.632302C13.7344 0.470251 14.0081 0.180685 13.6441 0.0133206C12.9029 -0.138104 12.5523 0.733252 12.0103 1.14236C11.7261 1.35755 11.3117 1.20878 11.2213 0.863424C11.1549 0.611049 11.1204 0.414463 10.7777 0.711999C10.2915 1.03876 9.6327 1.3177 9.02434 1.33098C8.91277 1.33098 8.80651 1.37614 8.7215 1.44787C8.63649 1.51694 8.52491 1.55945 8.42927 1.57273C7.95109 1.36552 6.57764 1.06267 7.08239 2.00044C7.07442 2.17046 7.13021 2.23156 6.95753 2.11998C6.59624 2.1253 6.67859 2.5105 6.64406 2.76819C6.48201 2.95149 6.52451 3.27559 6.77689 3.36857C7.1063 3.42967 7.56057 2.95149 7.79435 3.30747C7.94843 3.7644 7.67481 3.98224 7.45697 4.26649C7.35336 4.40198 7.29226 4.65966 7.32414 4.82703C7.61902 6.32799 10.4828 5.46461 10.5705 5.49914C11.9838 6.06765 11.9652 7.51282 11.6411 9.08286C11.5879 9.33789 11.5109 9.58495 11.4073 9.82404C11.208 10.2836 10.969 10.7884 10.6847 11.3409C9.62739 13.3998 6.85393 16.7975 5.75145 19.1327C4.07515 22.4693 3.32069 26.4701 3.95029 30.022C4.17079 31.2679 4.86947 32.9522 4.86947 32.9522C11.3887 30.4523 17.9053 33.8341 20.7239 34.4212C23.7099 35.0429 31.4432 35.4015 34.647 34.5381C36.2329 33.3613 37.285 32.2429 37.285 32.2429C20.0465 28.0375 10.682 29.7191 12.9879 13.8381L12.9906 13.8434Z" fill="#B7CAC6"/>
</svg>